<?xml version="1.0" encoding="utf-8"?>
<!-- Generator: Adobe Illustrator 23.0.2, SVG Export Plug-In . SVG Version: 6.00 Build 0)  -->
<svg version="1.1" id="Calque_1" xmlns="http://www.w3.org/2000/svg" xmlns:xlink="http://www.w3.org/1999/xlink" x="0px" y="0px"
	 viewBox="0 0 189 56" style="enable-background:new 0 0 189 56;" xml:space="preserve">
<style type="text/css">
	.st0{fill:#A6A6A6;}
	.st1{fill:#FFFFFF;}
	.st2{clip-path:url(#SVGID_2_);fill:url(#SVGID_3_);}
	.st3{clip-path:url(#SVGID_5_);fill:url(#SVGID_6_);}
	.st4{clip-path:url(#SVGID_8_);fill:url(#SVGID_9_);}
	.st5{clip-path:url(#SVGID_11_);fill:url(#SVGID_12_);}
	.st6{clip-path:url(#SVGID_14_);}
	.st7{clip-path:url(#SVGID_16_);}
	.st8{clip-path:url(#SVGID_18_);}
	.st9{clip-path:url(#SVGID_20_);fill:#FFFFFF;}
	.st10{fill:none;stroke:#FFFFFF;stroke-width:0.2;}
	.st11{fill:#FFFFFF;stroke:#FFFFFF;stroke-width:0.2;}
</style>
<path d="M182,56H7c-3.9,0-7-3.1-7-7V7c0-3.9,3.1-7,7-7h175c3.9,0,7,3.1,7,7v42C189,52.9,185.9,56,182,56"/>
<path class="st0" d="M182,0H7C3.1,0,0,3.1,0,7v42c0,3.9,3.1,7,7,7h175c3.9,0,7-3.1,7-7V7C189,3.1,185.9,0,182,0 M182,1.1
	c3.2,0,5.9,2.6,5.9,5.9v42c0,3.2-2.6,5.9-5.9,5.9H7c-3.2,0-5.9-2.6-5.9-5.9V7c0-3.2,2.6-5.9,5.9-5.9H182"/>
<path class="st1" d="M149.7,42h2.6V24.5h-2.6V42z M173.2,30.8l-3,7.6h-0.1l-3.1-7.6h-2.8l4.7,10.6l-2.7,5.9h2.7l7.2-16.5H173.2z
	 M158.4,40c-0.9,0-2-0.4-2-1.5c0-1.4,1.5-1.9,2.8-1.9c0.8,0,1.7,0.2,2.4,0.6C161.3,38.8,160,40,158.4,40 M158.7,30.4
	c-1.9-0.1-3.8,0.9-4.7,2.7l2.3,1c0.5-0.9,1.4-1.4,2.4-1.3c1.4-0.1,2.6,0.9,2.7,2.3v0.2c-0.8-0.4-1.8-0.7-2.7-0.7c-2.5,0-5,1.4-5,3.9
	c0,2.3,2,3.9,4.3,3.9c1.3,0.1,2.6-0.6,3.3-1.7h0.1V42h2.5v-6.7C164.1,32.2,161.7,30.4,158.7,30.4 M142.6,32.9h-3.7v-6h3.7
	c1.7,0,3,1.3,3.1,3C145.6,31.6,144.3,32.9,142.6,32.9 M142.5,24.5h-6.3V42h2.6v-6.6h3.6c3.1,0.1,5.6-2.3,5.7-5.3c0,0,0-0.1,0-0.1
	C148.2,26.9,145.7,24.4,142.5,24.5C142.6,24.5,142.6,24.5,142.5,24.5 M108.4,40c-1.9-0.1-3.4-1.6-3.3-3.5c0,0,0,0,0-0.1
	c-0.1-1.9,1.3-3.5,3.2-3.6c0,0,0,0,0.1,0c1.9,0.1,3.3,1.7,3.2,3.5c0,0,0,0.1,0,0.1c0.1,1.8-1.2,3.4-3.1,3.6
	C108.5,40,108.4,40,108.4,40 M111.4,31.8L111.4,31.8c-0.9-0.9-2-1.4-3.2-1.3c-3.2,0.1-5.7,2.8-5.7,6c0,3.2,2.5,5.8,5.7,5.9
	c1.2,0,2.3-0.5,3.1-1.4h0.1v0.9c0,2.3-1.2,3.5-3.2,3.5c-1.3,0-2.5-0.9-3-2.1l-2.3,0.9c0.9,2.1,3,3.5,5.3,3.5c3.1,0,5.7-1.8,5.7-6.2
	V30.8h-2.5L111.4,31.8z M115.7,42h2.6V24.5h-2.6V42z M122.2,36.2c-0.1-1.8,1.2-3.4,3-3.5c0,0,0,0,0.1,0c0.9-0.1,1.8,0.4,2.2,1.3
	L122.2,36.2z M130.3,34.2c-0.7-2.2-2.8-3.7-5.1-3.8c-3.1,0-5.6,2.6-5.6,5.7c0,0.1,0,0.2,0,0.3c-0.1,3.2,2.5,5.9,5.7,6
	c0.1,0,0.1,0,0.2,0c2,0,3.9-1,5-2.6l-2-1.4c-0.6,1-1.7,1.7-2.9,1.6c-1.2,0-2.4-0.7-2.9-1.8l8-3.3L130.3,34.2z M66.8,32.3v2.5h6
	c-0.1,1.2-0.6,2.3-1.4,3.2c-1.2,1.2-2.9,1.9-4.7,1.9c-3.7,0-6.6-3-6.6-6.6c0,0,0-0.1,0-0.1c0-3.7,2.9-6.7,6.5-6.7c0,0,0.1,0,0.1,0
	c1.7,0,3.3,0.6,4.6,1.8l1.8-1.8c-1.7-1.7-4-2.6-6.3-2.5c-5.1,0-9.3,4.1-9.4,9.2c0.1,5.1,4.3,9.3,9.4,9.2c2.4,0.1,4.8-0.8,6.5-2.6
	c1.5-1.6,2.3-3.7,2.2-5.9c0-0.5,0-1.1-0.1-1.6L66.8,32.3z M82.4,40c-1.9,0-3.4-1.6-3.4-3.5c0,0,0-0.1,0-0.1
	c-0.1-1.9,1.4-3.5,3.2-3.6c0,0,0.1,0,0.1,0c1.9,0,3.4,1.6,3.4,3.5c0,0,0,0.1,0,0.1C85.8,38.3,84.3,39.9,82.4,40
	C82.4,40,82.4,40,82.4,40 M82.4,30.5c-3.2-0.1-5.9,2.5-6,5.8c0,0.1,0,0.1,0,0.2c0,3.2,2.6,5.9,5.8,6c0.1,0,0.1,0,0.2,0
	c3.2,0.1,5.9-2.5,6-5.8c0-0.1,0-0.1,0-0.2c0-3.2-2.5-5.9-5.8-6C82.5,30.5,82.4,30.5,82.4,30.5 M95.4,40c-1.9,0-3.4-1.6-3.4-3.5
	c0,0,0-0.1,0-0.1c-0.1-1.9,1.4-3.5,3.2-3.6c0,0,0.1,0,0.1,0c1.9,0,3.4,1.6,3.4,3.5c0,0,0,0.1,0,0.1C98.8,38.3,97.4,39.9,95.4,40
	C95.4,40,95.4,40,95.4,40 M95.4,30.5c-3.2-0.1-5.9,2.5-6,5.8c0,0.1,0,0.1,0,0.2c0,3.2,2.6,5.9,5.8,6c0.1,0,0.1,0,0.2,0
	c3.2,0.1,5.9-2.5,6-5.8c0-0.1,0-0.1,0-0.2c0-3.2-2.5-5.9-5.8-6C95.5,30.4,95.5,30.4,95.4,30.5"/>
<g>
	<defs>
		<path id="SVGID_1_" d="M14.6,10.6c-0.5,0.5-0.7,1.3-0.6,2l0,0v31c0,0.7,0.2,1.4,0.6,2l0,0l0.1,0.1l17.3-17.3v-0.4L14.7,10.5
			L14.6,10.6z"/>
	</defs>
	<clipPath id="SVGID_2_">
		<use xlink:href="#SVGID_1_"  style="overflow:visible;"/>
	</clipPath>
	
		<linearGradient id="SVGID_3_" gradientUnits="userSpaceOnUse" x1="-201.7088" y1="450.2771" x2="-201.5528" y2="450.2771" gradientTransform="matrix(-150.4999 150.4999 150.4999 150.4999 -98053.3828 -37357.4219)">
		<stop  offset="0" style="stop-color:#00A0FF"/>
		<stop  offset="0.1" style="stop-color:#00ABFF"/>
		<stop  offset="0.2" style="stop-color:#00B7FF"/>
		<stop  offset="0.3" style="stop-color:#00C1FF"/>
		<stop  offset="0.4" style="stop-color:#00C9FF"/>
		<stop  offset="0.5" style="stop-color:#00D1FF"/>
		<stop  offset="0.6" style="stop-color:#00D6FF"/>
		<stop  offset="0.7" style="stop-color:#00DBFF"/>
		<stop  offset="0.8" style="stop-color:#00DFFF"/>
		<stop  offset="0.9" style="stop-color:#00E1FF"/>
		<stop  offset="1" style="stop-color:#00E2FF"/>
	</linearGradient>
	<path class="st2" d="M-14-14l217,0v84l-217,0V-14z"/>
</g>
<g>
	<defs>
		<path id="SVGID_4_" d="M32.1,27.8v0.4l5.8,5.8l0.1-0.1l6.8-3.9c2-1.1,2-2.9,0-4l0,0L38,22.1L37.8,22L32.1,27.8z"/>
	</defs>
	<clipPath id="SVGID_5_">
		<use xlink:href="#SVGID_4_"  style="overflow:visible;"/>
	</clipPath>
	
		<linearGradient id="SVGID_6_" gradientUnits="userSpaceOnUse" x1="-203.154" y1="452.9019" x2="-202.998" y2="452.9019" gradientTransform="matrix(-217 0 0 84 -44037 -38015.7617)">
		<stop  offset="0" style="stop-color:#FFDF00"/>
		<stop  offset="0.1" style="stop-color:#FFD700"/>
		<stop  offset="0.2" style="stop-color:#FFCE00"/>
		<stop  offset="0.3" style="stop-color:#FFC600"/>
		<stop  offset="0.4" style="stop-color:#FFBD00"/>
		<stop  offset="0.5" style="stop-color:#FFB700"/>
		<stop  offset="0.6" style="stop-color:#FFB000"/>
		<stop  offset="0.7" style="stop-color:#FFA900"/>
		<stop  offset="0.8" style="stop-color:#FFA400"/>
		<stop  offset="0.9" style="stop-color:#FFA000"/>
		<stop  offset="1" style="stop-color:#FF9C00"/>
	</linearGradient>
	<path class="st3" d="M-14-14h217v84H-14V-14z"/>
</g>
<g>
	<defs>
		<path id="SVGID_7_" d="M14.6,45.4c0.6,0.7,1.7,0.8,2.9,0.1l0,0L38,33.9L32.1,28L14.6,45.4z"/>
	</defs>
	<clipPath id="SVGID_8_">
		<use xlink:href="#SVGID_7_"  style="overflow:visible;"/>
	</clipPath>
	
		<linearGradient id="SVGID_9_" gradientUnits="userSpaceOnUse" x1="-201.6598" y1="450.2771" x2="-201.4478" y2="450.2771" gradientTransform="matrix(-150.4999 150.4999 150.4999 150.4999 -98053.3828 -37357.4219)">
		<stop  offset="0" style="stop-color:#FF3A44"/>
		<stop  offset="0.1" style="stop-color:#F93547"/>
		<stop  offset="0.2" style="stop-color:#F3314A"/>
		<stop  offset="0.3" style="stop-color:#ED2D4D"/>
		<stop  offset="0.4" style="stop-color:#E72950"/>
		<stop  offset="0.5" style="stop-color:#E12553"/>
		<stop  offset="0.6" style="stop-color:#DB2156"/>
		<stop  offset="0.7" style="stop-color:#D51D59"/>
		<stop  offset="0.8" style="stop-color:#CF195C"/>
		<stop  offset="0.9" style="stop-color:#C9155F"/>
		<stop  offset="1" style="stop-color:#C31162"/>
	</linearGradient>
	<path class="st4" d="M-14-14l217,0v84l-217,0V-14z"/>
</g>
<g>
	<defs>
		<path id="SVGID_10_" d="M14.6,10.6L32.1,28l5.9-5.9L17.5,10.5C17,10.2,16.5,10,16,10l0,0C15.4,10,15,10.2,14.6,10.6"/>
	</defs>
	<clipPath id="SVGID_11_">
		<use xlink:href="#SVGID_10_"  style="overflow:visible;"/>
	</clipPath>
	
		<linearGradient id="SVGID_12_" gradientUnits="userSpaceOnUse" x1="-200.985" y1="447.7588" x2="-200.891" y2="447.7588" gradientTransform="matrix(150.502 150.502 150.4999 -150.4999 -37100.4922 97608.3125)">
		<stop  offset="0" style="stop-color:#31A070"/>
		<stop  offset="0.1" style="stop-color:#2BAA71"/>
		<stop  offset="0.2" style="stop-color:#25B371"/>
		<stop  offset="0.3" style="stop-color:#1FBD72"/>
		<stop  offset="0.4" style="stop-color:#19C773"/>
		<stop  offset="0.5" style="stop-color:#13D074"/>
		<stop  offset="0.6" style="stop-color:#0FD874"/>
		<stop  offset="0.7" style="stop-color:#0ADF74"/>
		<stop  offset="0.8" style="stop-color:#06E674"/>
		<stop  offset="0.9" style="stop-color:#03EB75"/>
		<stop  offset="1" style="stop-color:#00EF75"/>
	</linearGradient>
	<path class="st5" d="M-14-14h217v84l-217,0L-14-14z"/>
</g>
<g>
	<defs>
		<rect id="SVGID_13_" x="14.6" y="33.8" width="23.4" height="12.2"/>
	</defs>
	<clipPath id="SVGID_14_">
		<use xlink:href="#SVGID_13_"  style="overflow:visible;"/>
	</clipPath>
	<path class="st6" d="M37.8,33.8L17.5,45.3c-0.8,0.6-2,0.6-2.8,0l-0.1,0.1l0.1,0.1l0,0c0.8,0.6,2,0.6,2.8,0L38,33.9L37.8,33.8z"/>
</g>
<g>
	<defs>
		<rect id="SVGID_15_" x="14" y="43.3" width="0.8" height="2.2"/>
	</defs>
	<clipPath id="SVGID_16_">
		<use xlink:href="#SVGID_15_"  style="overflow:visible;"/>
	</clipPath>
	<path class="st7" d="M14.6,45.2c-0.5-0.5-0.7-1.2-0.6-2v0.2c0,0.7,0.2,1.4,0.6,2l0.1-0.1L14.6,45.2z"/>
</g>
<g>
	<defs>
		<rect id="SVGID_17_" x="37.8" y="28" width="8.4" height="5.9"/>
	</defs>
	<clipPath id="SVGID_18_">
		<use xlink:href="#SVGID_17_"  style="overflow:visible;"/>
	</clipPath>
	<path class="st8" d="M44.8,29.8l-7,4l0.1,0.1l6.8-3.9c0.8-0.4,1.4-1.1,1.5-2C46.1,28.8,45.6,29.5,44.8,29.8"/>
</g>
<g>
	<defs>
		<rect id="SVGID_19_" x="14" y="10" width="32.3" height="18"/>
	</defs>
	<clipPath id="SVGID_20_">
		<use xlink:href="#SVGID_19_"  style="overflow:visible;"/>
	</clipPath>
	<path class="st9" d="M17.5,10.7l27.3,15.5c0.7,0.3,1.3,1,1.5,1.8c-0.1-0.9-0.6-1.7-1.5-2L17.5,10.5c-2-1.1-3.6-0.2-3.6,2.1v0.2
		C14,10.5,15.6,9.6,17.5,10.7"/>
</g>
<path class="st1" d="M58.9,17.2h1.5c0.8,0,1.7-0.3,2.3-0.8c0.6-0.6,0.9-1.5,0.9-2.3c0-0.9-0.3-1.7-0.9-2.3c-0.6-0.6-1.5-0.9-2.3-0.8
	h-1.5V17.2z M57.8,18.2V9.8h2.6c1.1-0.1,2.3,0.4,3.1,1.2c0.8,0.8,1.2,1.9,1.2,3c0,1.1-0.4,2.2-1.2,3c-0.8,0.8-1.9,1.2-3.1,1.2H57.8z
	"/>
<path class="st10" d="M58.9,17.2h1.5c0.8,0,1.7-0.3,2.3-0.8c0.6-0.6,0.9-1.5,0.9-2.3c0-0.9-0.3-1.7-0.9-2.3
	c-0.6-0.6-1.5-0.9-2.3-0.8h-1.5V17.2z M57.8,18.2V9.8h2.6c1.1-0.1,2.3,0.4,3.1,1.2c0.8,0.8,1.2,1.9,1.2,3c0,1.1-0.4,2.2-1.2,3
	c-0.8,0.8-1.9,1.2-3.1,1.2H57.8z"/>
<path class="st11" d="M66.1,9.8h1.1v8.4h-1.1V9.8z"/>
<path class="st1" d="M71.5,18.4c-0.6,0-1.3-0.2-1.8-0.6c-0.6-0.4-1-1-1.1-1.7l1-0.4c0.1,0.5,0.4,0.9,0.7,1.2
	c0.3,0.3,0.8,0.5,1.2,0.5c0.4,0,0.9-0.1,1.2-0.4c0.3-0.2,0.5-0.6,0.5-1c0-0.4-0.2-0.8-0.5-1.1c-0.5-0.3-1-0.6-1.6-0.7
	c-0.6-0.2-1.2-0.5-1.7-0.9c-0.4-0.4-0.6-0.9-0.6-1.4c0-0.6,0.3-1.2,0.7-1.6c0.5-0.5,1.2-0.7,1.9-0.7c0.6,0,1.2,0.2,1.7,0.5
	c0.4,0.3,0.7,0.7,0.9,1.2l-1,0.4c-0.1-0.3-0.3-0.6-0.5-0.7c-0.3-0.2-0.7-0.4-1.1-0.3c-0.4,0-0.8,0.1-1.1,0.3
	c-0.3,0.2-0.4,0.5-0.4,0.9c0,0.3,0.1,0.6,0.4,0.8c0.4,0.3,0.8,0.5,1.2,0.6c0.4,0.1,0.7,0.2,1,0.4c0.3,0.1,0.6,0.3,0.8,0.5
	c0.3,0.2,0.5,0.5,0.6,0.8c0.1,0.3,0.2,0.7,0.2,1.1c0,0.4-0.1,0.8-0.3,1.1c-0.2,0.3-0.4,0.6-0.7,0.8c-0.3,0.2-0.6,0.3-0.9,0.4
	C72.2,18.3,71.8,18.4,71.5,18.4"/>
<path class="st10" d="M71.5,18.4c-0.6,0-1.3-0.2-1.8-0.6c-0.6-0.4-1-1-1.1-1.7l1-0.4c0.1,0.5,0.4,0.9,0.7,1.2
	c0.3,0.3,0.8,0.5,1.2,0.5c0.4,0,0.9-0.1,1.2-0.4c0.3-0.2,0.5-0.6,0.5-1c0-0.4-0.2-0.8-0.5-1.1c-0.5-0.3-1-0.6-1.6-0.7
	c-0.6-0.2-1.2-0.5-1.7-0.9c-0.4-0.4-0.6-0.9-0.6-1.4c0-0.6,0.3-1.2,0.7-1.6c0.5-0.5,1.2-0.7,1.9-0.7c0.6,0,1.2,0.2,1.7,0.5
	c0.4,0.3,0.7,0.7,0.9,1.2l-1,0.4c-0.1-0.3-0.3-0.6-0.5-0.7c-0.3-0.2-0.7-0.4-1.1-0.3c-0.4,0-0.8,0.1-1.1,0.3
	c-0.3,0.2-0.4,0.5-0.4,0.9c0,0.3,0.1,0.6,0.4,0.8c0.4,0.3,0.8,0.5,1.2,0.6c0.4,0.1,0.7,0.2,1,0.4c0.3,0.1,0.6,0.3,0.8,0.5
	c0.3,0.2,0.5,0.5,0.6,0.8c0.1,0.3,0.2,0.7,0.2,1.1c0,0.4-0.1,0.8-0.3,1.1c-0.2,0.3-0.4,0.6-0.7,0.8c-0.3,0.2-0.6,0.3-0.9,0.4
	C72.2,18.3,71.8,18.4,71.5,18.4z"/>
<path class="st1" d="M76.9,13.8h1.8c0.4,0,0.8-0.2,1.1-0.5c0.3-0.3,0.4-0.6,0.4-1c0-0.4-0.1-0.7-0.4-1c-0.3-0.3-0.7-0.5-1.1-0.5
	h-1.8V13.8z M76.9,18.2h-1.1V9.8h2.9c0.7,0,1.3,0.2,1.8,0.7c0.5,0.5,0.8,1.1,0.8,1.8c0,0.7-0.3,1.3-0.8,1.8
	c-0.5,0.5-1.2,0.7-1.8,0.7h-1.8V18.2z"/>
<path class="st10" d="M76.9,13.8h1.8c0.4,0,0.8-0.2,1.1-0.5c0.3-0.3,0.4-0.6,0.4-1c0-0.4-0.1-0.7-0.4-1c-0.3-0.3-0.7-0.5-1.1-0.5
	h-1.8V13.8z M76.9,18.2h-1.1V9.8h2.9c0.7,0,1.3,0.2,1.8,0.7c0.5,0.5,0.8,1.1,0.8,1.8c0,0.7-0.3,1.3-0.8,1.8
	c-0.5,0.5-1.2,0.7-1.8,0.7h-1.8V18.2z"/>
<path class="st1" d="M84.2,16.4c0.6,0.6,1.4,1,2.3,0.9c0.9,0,1.7-0.3,2.3-0.9c0.6-0.6,1-1.5,0.9-2.4c0-0.9-0.3-1.8-0.9-2.4
	c-0.6-0.6-1.4-1-2.3-0.9c-0.9,0-1.7,0.3-2.3,0.9c-0.6,0.6-1,1.5-0.9,2.4C83.3,14.9,83.6,15.8,84.2,16.4 M89.6,17.1
	c-0.8,0.8-1.9,1.3-3.1,1.3c-1.2,0-2.3-0.4-3.1-1.3c-0.8-0.8-1.3-2-1.2-3.1c0-1.2,0.4-2.3,1.2-3.1c0.8-0.8,1.9-1.3,3.1-1.3
	c1.2,0,2.3,0.4,3.1,1.3c0.8,0.8,1.3,1.9,1.2,3.1C90.8,15.2,90.4,16.3,89.6,17.1"/>
<path class="st10" d="M84.2,16.4c0.6,0.6,1.4,1,2.3,0.9c0.9,0,1.7-0.3,2.3-0.9c0.6-0.6,1-1.5,0.9-2.4c0-0.9-0.3-1.8-0.9-2.4
	c-0.6-0.6-1.4-1-2.3-0.9c-0.9,0-1.7,0.3-2.3,0.9c-0.6,0.6-1,1.5-0.9,2.4C83.3,14.9,83.6,15.8,84.2,16.4z M89.6,17.1
	c-0.8,0.8-1.9,1.3-3.1,1.3c-1.2,0-2.3-0.4-3.1-1.3c-0.8-0.8-1.3-2-1.2-3.1c0-1.2,0.4-2.3,1.2-3.1c0.8-0.8,1.9-1.3,3.1-1.3
	c1.2,0,2.3,0.4,3.1,1.3c0.8,0.8,1.3,1.9,1.2,3.1C90.8,15.2,90.4,16.3,89.6,17.1L89.6,17.1z"/>
<path class="st1" d="M92.3,18.2V9.8h1.3l4.1,6.5h0l0-1.6V9.8h1.1v8.4h-1.1l-4.3-6.9h0l0,1.6v5.2H92.3z"/>
<path class="st10" d="M92.3,18.2V9.8h1.3l4.1,6.5h0l0-1.6V9.8h1.1v8.4h-1.1l-4.3-6.9h0l0,1.6v5.2H92.3z"/>
<path class="st11" d="M100.7,9.8h1.1v8.4h-1.1V9.8z"/>
<path class="st1" d="M104.8,17.2h2.2c0.4,0,0.8-0.1,1-0.4c0.2-0.3,0.4-0.6,0.4-0.9c0-0.4-0.1-0.7-0.4-0.9c-0.3-0.3-0.7-0.4-1-0.4
	h-2.1V17.2z M104.8,13.4h2c0.4,0,0.7-0.1,1-0.4c0.2-0.2,0.4-0.6,0.4-0.9c0-0.3-0.1-0.6-0.4-0.9c-0.2-0.3-0.6-0.4-0.9-0.4h-2V13.4z
	 M103.7,18.2V9.8h3c0.6,0,1.2,0.2,1.7,0.7c0.5,0.4,0.7,1,0.7,1.6c0,0.4-0.1,0.7-0.3,1.1c-0.2,0.3-0.5,0.5-0.8,0.7v0
	c0.4,0.1,0.8,0.4,1,0.7c0.3,0.3,0.4,0.8,0.4,1.2c0,0.7-0.3,1.3-0.8,1.7c-0.5,0.4-1.1,0.7-1.8,0.7H103.7z"/>
<path class="st10" d="M104.8,17.2h2.2c0.4,0,0.8-0.1,1-0.4c0.2-0.3,0.4-0.6,0.4-0.9c0-0.4-0.1-0.7-0.4-0.9c-0.3-0.3-0.7-0.4-1-0.4
	h-2.1V17.2z M104.8,13.4h2c0.4,0,0.7-0.1,1-0.4c0.2-0.2,0.4-0.6,0.4-0.9c0-0.3-0.1-0.6-0.4-0.9c-0.2-0.3-0.6-0.4-0.9-0.4h-2V13.4z
	 M103.7,18.2V9.8h3c0.6,0,1.2,0.2,1.7,0.7c0.5,0.4,0.7,1,0.7,1.6c0,0.4-0.1,0.7-0.3,1.1c-0.2,0.3-0.5,0.5-0.8,0.7v0
	c0.4,0.1,0.8,0.4,1,0.7c0.3,0.3,0.4,0.8,0.4,1.2c0,0.7-0.3,1.3-0.8,1.7c-0.5,0.4-1.1,0.7-1.8,0.7H103.7z"/>
<path class="st1" d="M110.9,18.2V9.8h1.1v7.4h3.6v1H110.9z"/>
<path class="st10" d="M110.9,18.2V9.8h1.1v7.4h3.6v1H110.9z"/>
<path class="st1" d="M121.9,10.8h-3.8v2.7h3.4v1h-3.4v2.7h3.8v1H117V9.8h4.9V10.8z"/>
<path class="st10" d="M121.9,10.8h-3.8v2.7h3.4v1h-3.4v2.7h3.8v1H117V9.8h4.9V10.8z"/>
<path class="st1" d="M128.4,18.4c-0.6,0-1.3-0.2-1.8-0.6c-0.6-0.4-1-1-1.1-1.7l1-0.4c0.1,0.5,0.4,0.9,0.7,1.2
	c0.3,0.3,0.8,0.5,1.2,0.5c0.4,0,0.9-0.1,1.2-0.4c0.3-0.2,0.5-0.6,0.5-1c0-0.4-0.2-0.8-0.5-1.1c-0.5-0.3-1-0.6-1.6-0.7
	c-0.6-0.2-1.2-0.5-1.7-0.9c-0.4-0.4-0.6-0.9-0.6-1.4c0-0.6,0.3-1.2,0.7-1.6c0.5-0.5,1.2-0.7,1.9-0.7c0.6,0,1.2,0.2,1.7,0.5
	c0.4,0.3,0.7,0.7,0.9,1.2l-1,0.4c-0.1-0.3-0.3-0.6-0.5-0.7c-0.3-0.2-0.7-0.4-1.1-0.3c-0.4,0-0.8,0.1-1.1,0.3
	c-0.3,0.2-0.4,0.5-0.4,0.9c0,0.3,0.1,0.6,0.4,0.8c0.4,0.3,0.8,0.5,1.2,0.6c0.4,0.1,0.7,0.2,1,0.4c0.3,0.1,0.6,0.3,0.8,0.5
	c0.3,0.2,0.5,0.5,0.6,0.8c0.1,0.3,0.2,0.7,0.2,1.1c0,0.4-0.1,0.8-0.3,1.1c-0.2,0.3-0.4,0.6-0.7,0.8c-0.3,0.2-0.6,0.3-0.9,0.4
	C129.1,18.3,128.8,18.4,128.4,18.4"/>
<path class="st10" d="M128.4,18.4c-0.6,0-1.3-0.2-1.8-0.6c-0.6-0.4-1-1-1.1-1.7l1-0.4c0.1,0.5,0.4,0.9,0.7,1.2
	c0.3,0.3,0.8,0.5,1.2,0.5c0.4,0,0.9-0.1,1.2-0.4c0.3-0.2,0.5-0.6,0.5-1c0-0.4-0.2-0.8-0.5-1.1c-0.5-0.3-1-0.6-1.6-0.7
	c-0.6-0.2-1.2-0.5-1.7-0.9c-0.4-0.4-0.6-0.9-0.6-1.4c0-0.6,0.3-1.2,0.7-1.6c0.5-0.5,1.2-0.7,1.9-0.7c0.6,0,1.2,0.2,1.7,0.5
	c0.4,0.3,0.7,0.7,0.9,1.2l-1,0.4c-0.1-0.3-0.3-0.6-0.5-0.7c-0.3-0.2-0.7-0.4-1.1-0.3c-0.4,0-0.8,0.1-1.1,0.3
	c-0.3,0.2-0.4,0.5-0.4,0.9c0,0.3,0.1,0.6,0.4,0.8c0.4,0.3,0.8,0.5,1.2,0.6c0.4,0.1,0.7,0.2,1,0.4c0.3,0.1,0.6,0.3,0.8,0.5
	c0.3,0.2,0.5,0.5,0.6,0.8c0.1,0.3,0.2,0.7,0.2,1.1c0,0.4-0.1,0.8-0.3,1.1c-0.2,0.3-0.4,0.6-0.7,0.8c-0.3,0.2-0.6,0.3-0.9,0.4
	C129.1,18.3,128.8,18.4,128.4,18.4z"/>
<path class="st1" d="M135.7,18.4c-0.8,0-1.7-0.3-2.2-0.9c-0.6-0.7-0.9-1.5-0.9-2.4V9.8h1.1v5.3c0,0.6,0.2,1.2,0.5,1.6
	c0.4,0.4,0.9,0.7,1.5,0.6c0.6,0,1.1-0.2,1.5-0.6c0.4-0.5,0.5-1,0.5-1.6V9.8h1.1v5.3c0,0.9-0.3,1.7-0.8,2.4
	C137.4,18.1,136.6,18.4,135.7,18.4"/>
<path class="st10" d="M135.7,18.4c-0.8,0-1.7-0.3-2.2-0.9c-0.6-0.7-0.9-1.5-0.9-2.4V9.8h1.1v5.3c0,0.6,0.2,1.2,0.5,1.6
	c0.4,0.4,0.9,0.7,1.5,0.6c0.6,0,1.1-0.2,1.5-0.6c0.4-0.5,0.5-1,0.5-1.6V9.8h1.1v5.3c0,0.9-0.3,1.7-0.8,2.4
	C137.4,18.1,136.6,18.4,135.7,18.4z"/>
<path class="st1" d="M141.6,13.8h1.7c0.4,0,0.8-0.1,1.1-0.4c0.3-0.3,0.5-0.7,0.5-1.1c0-0.4-0.1-0.7-0.4-1c-0.3-0.3-0.7-0.5-1.1-0.5
	h-1.8V13.8z M140.6,18.2V9.8h2.9c0.7,0,1.3,0.2,1.8,0.7c0.5,0.5,0.8,1.1,0.8,1.8c0,0.6-0.2,1.1-0.6,1.6c-0.4,0.4-0.9,0.7-1.4,0.9
	l0,0l2.4,3.4v0h-1.3l-2.3-3.4h-1.2v3.4L140.6,18.2z"/>
<path class="st10" d="M141.6,13.8h1.7c0.4,0,0.8-0.1,1.1-0.4c0.3-0.3,0.5-0.7,0.5-1.1c0-0.4-0.1-0.7-0.4-1c-0.3-0.3-0.7-0.5-1.1-0.5
	h-1.8V13.8z M140.6,18.2V9.8h2.9c0.7,0,1.3,0.2,1.8,0.7c0.5,0.5,0.8,1.1,0.8,1.8c0,0.6-0.2,1.1-0.6,1.6c-0.4,0.4-0.9,0.7-1.4,0.9
	l0,0l2.4,3.4v0h-1.3l-2.3-3.4h-1.2v3.4L140.6,18.2z"/>
</svg>
