<svg xmlns="http://www.w3.org/2000/svg" xmlns:xlink="http://www.w3.org/1999/xlink" width="217" height="84" viewBox="0 0 217 84"><defs><clipPath id="a"><path d="M0-60H217V24H0Z" transform="translate(0 60)" fill="none"/></clipPath><clipPath id="b"><rect width="217" height="84" fill="none"/></clipPath><clipPath id="c"><path d="M20.62-42.433a2.81,2.81,0,0,0-.647,1.967h0V-9.5a2.8,2.8,0,0,0,.647,1.967h0l.1.1L38.069-24.78v-.409L20.723-42.535Z" transform="translate(-19.973 42.535)" fill="none"/></clipPath><linearGradient id="d" x1="0.66" y1="0.235" x2="0.816" y2="0.235" gradientUnits="objectBoundingBox"><stop offset="0" stop-color="#00a0ff"/><stop offset="0.1" stop-color="#00abff"/><stop offset="0.2" stop-color="#00b7ff"/><stop offset="0.3" stop-color="#00c1ff"/><stop offset="0.4" stop-color="#00c9ff"/><stop offset="0.5" stop-color="#00d1ff"/><stop offset="0.6" stop-color="#00d6ff"/><stop offset="0.7" stop-color="#00dbff"/><stop offset="0.8" stop-color="#00dfff"/><stop offset="0.9" stop-color="#00e1ff"/><stop offset="1" stop-color="#00e2ff"/></linearGradient><clipPath id="e"><path d="M32.9-28.493v.409L38.68-22.3l.132-.073,6.85-3.892c1.956-1.113,1.956-2.933,0-4.043h0L38.811-34.2l-.13-.074Z" transform="translate(-32.899 34.276)" fill="none"/></clipPath><linearGradient id="f" x1="0.717" y1="0.5" x2="0.873" y2="0.5" gradientUnits="objectBoundingBox"><stop offset="0" stop-color="#ffdf00"/><stop offset="0.1" stop-color="gold"/><stop offset="0.2" stop-color="#ffce00"/><stop offset="0.3" stop-color="#ffc600"/><stop offset="0.4" stop-color="#ffbd00"/><stop offset="0.5" stop-color="#ffb700"/><stop offset="0.6" stop-color="#ffb000"/><stop offset="0.7" stop-color="#ffa900"/><stop offset="0.8" stop-color="#ffa400"/><stop offset="0.9" stop-color="#ffa000"/><stop offset="1" stop-color="#ff9c00"/></linearGradient><clipPath id="g"><path d="M20.435-12.551c.645.682,1.711.767,2.911.087h0L43.8-24.085,37.885-30Z" transform="translate(-20.435 29.999)" fill="none"/></clipPath><linearGradient id="h" x1="0.709" y1="0.312" x2="0.921" y2="0.312" gradientUnits="objectBoundingBox"><stop offset="0" stop-color="#ff3a44"/><stop offset="0.1" stop-color="#f93547"/><stop offset="0.2" stop-color="#f3314a"/><stop offset="0.3" stop-color="#ed2d4d"/><stop offset="0.4" stop-color="#e72950"/><stop offset="0.5" stop-color="#e12553"/><stop offset="0.6" stop-color="#db2156"/><stop offset="0.7" stop-color="#d51d59"/><stop offset="0.8" stop-color="#cf195c"/><stop offset="0.9" stop-color="#c9155f"/><stop offset="1" stop-color="#c31162"/></linearGradient><clipPath id="i"><path d="M20.435-42.3l17.45,17.448L43.8-30.768,23.346-42.388a3.215,3.215,0,0,0-1.569-.472h0a1.793,1.793,0,0,0-1.341.557" transform="translate(-20.435 42.86)" fill="none"/></clipPath><linearGradient id="j" x1="0.128" y1="0.312" x2="0.222" y2="0.312" gradientUnits="objectBoundingBox"><stop offset="0" stop-color="#31a070"/><stop offset="0.1" stop-color="#2baa71"/><stop offset="0.2" stop-color="#25b371"/><stop offset="0.3" stop-color="#1fbd72"/><stop offset="0.4" stop-color="#19c773"/><stop offset="0.5" stop-color="#13d074"/><stop offset="0.6" stop-color="#0fd874"/><stop offset="0.7" stop-color="#0adf74"/><stop offset="0.8" stop-color="#06e674"/><stop offset="0.9" stop-color="#03eb75"/><stop offset="1" stop-color="#00ef75"/></linearGradient><clipPath id="l"><rect width="23.361" height="12.221" fill="none"/></clipPath><clipPath id="m"><rect width="0.752" height="2.171" fill="none"/></clipPath><clipPath id="n"><rect width="8.448" height="5.913" fill="none"/></clipPath><clipPath id="o"><rect width="32.327" height="18.005" fill="none"/></clipPath></defs><g transform="translate(0 60)"><g transform="translate(0 -60)" clip-path="url(#a)"><g opacity="0"><g clip-path="url(#b)"><path d="M217,24H0V-60H217Z" transform="translate(0 60)" fill="#fff"/></g></g><g transform="translate(14 14)"><path d="M52,16H-123a7.021,7.021,0,0,1-7-7V-33a7.021,7.021,0,0,1,7-7H52a7.021,7.021,0,0,1,7,7V9a7.021,7.021,0,0,1-7,7" transform="translate(130 40)"/></g><g transform="translate(14 14)"><path d="M52,0H-123a7.021,7.021,0,0,0-7,7V49a7.021,7.021,0,0,0,7,7H52a7.021,7.021,0,0,0,7-7V7a7.021,7.021,0,0,0-7-7m0,1.12A5.886,5.886,0,0,1,57.88,7V49A5.886,5.886,0,0,1,52,54.88H-123A5.886,5.886,0,0,1-128.88,49V7A5.887,5.887,0,0,1-123,1.12H52" transform="translate(130 0)" fill="#a6a6a6"/></g><path d="M143.3-14.819h2.611v-17.5H143.3Zm23.528-11.2-2.995,7.588h-.09l-3.108-7.588h-2.813l4.661,10.6-2.659,5.9h2.724l7.183-16.5Zm-14.816,9.209c-.854,0-2.048-.428-2.048-1.485,0-1.351,1.487-1.869,2.771-1.869a4.654,4.654,0,0,1,2.386.585,3.167,3.167,0,0,1-3.108,2.769m.316-9.591a4.9,4.9,0,0,0-4.661,2.68l2.318.967a2.478,2.478,0,0,1,2.387-1.284,2.515,2.515,0,0,1,2.747,2.251v.181a5.783,5.783,0,0,0-2.724-.675c-2.5,0-5.044,1.373-5.044,3.94,0,2.342,2.05,3.851,4.347,3.851a3.681,3.681,0,0,0,3.331-1.712h.091v1.351h2.523v-6.709c0-3.108-2.321-4.841-5.314-4.841m-16.145,2.513h-3.716v-6h3.716a3.032,3.032,0,0,1,3.062,3,3.049,3.049,0,0,1-3.062,3m-.067-8.435h-6.259v17.5h2.611v-6.63h3.648a5.546,5.546,0,0,0,5.741-5.436,5.545,5.545,0,0,0-5.741-5.435M101.978-16.8a3.417,3.417,0,0,1-3.315-3.587,3.443,3.443,0,0,1,3.315-3.632,3.355,3.355,0,0,1,3.179,3.632,3.328,3.328,0,0,1-3.179,3.587m3-8.233h-.09a4.13,4.13,0,0,0-3.135-1.331,5.923,5.923,0,0,0-5.706,5.978,5.9,5.9,0,0,0,5.706,5.932,4.063,4.063,0,0,0,3.135-1.352h.09v.855c0,2.279-1.218,3.5-3.179,3.5a3.294,3.294,0,0,1-3-2.12l-2.278.948A5.674,5.674,0,0,0,101.8-9.112c3.067,0,5.662-1.8,5.662-6.2V-26.006h-2.482Zm4.287,10.217h2.615v-17.5h-2.615Zm6.472-5.774a3.266,3.266,0,0,1,3.114-3.473A2.308,2.308,0,0,1,121.06-22.8Zm8.12-1.985a5.537,5.537,0,0,0-5.1-3.79,5.661,5.661,0,0,0-5.617,5.956,5.828,5.828,0,0,0,5.909,5.954,5.927,5.927,0,0,0,4.963-2.639l-2.03-1.354a3.4,3.4,0,0,1-2.933,1.648,3.027,3.027,0,0,1-2.885-1.806l7.96-3.293ZM60.425-24.539v2.526H66.47a5.272,5.272,0,0,1-1.376,3.179,6.189,6.189,0,0,1-4.669,1.851A6.633,6.633,0,0,1,53.793-23.7a6.633,6.633,0,0,1,6.632-6.721,6.44,6.44,0,0,1,4.556,1.8L66.763-30.4a8.813,8.813,0,0,0-6.338-2.549A9.378,9.378,0,0,0,51.042-23.7a9.377,9.377,0,0,0,9.383,9.247,8.455,8.455,0,0,0,6.45-2.594,8.347,8.347,0,0,0,2.188-5.909,8.17,8.17,0,0,0-.136-1.578ZM75.934-16.8a3.446,3.446,0,0,1-3.36-3.609,3.431,3.431,0,0,1,3.36-3.609A3.431,3.431,0,0,1,79.3-20.412,3.446,3.446,0,0,1,75.934-16.8m0-9.565a5.87,5.87,0,0,0-5.977,5.956,5.882,5.882,0,0,0,5.977,5.954,5.883,5.883,0,0,0,5.978-5.954,5.87,5.87,0,0,0-5.978-5.956M88.974-16.8a3.446,3.446,0,0,1-3.361-3.609,3.431,3.431,0,0,1,3.361-3.609,3.43,3.43,0,0,1,3.36,3.609,3.445,3.445,0,0,1-3.36,3.609m0-9.565A5.87,5.87,0,0,0,83-20.412a5.882,5.882,0,0,0,5.977,5.954,5.882,5.882,0,0,0,5.977-5.954,5.87,5.87,0,0,0-5.977-5.956" transform="translate(20.417 70.819)" fill="#fff"/></g><g transform="translate(27.962 -35.549)" clip-path="url(#c)"><g transform="translate(231.038 17.549) rotate(135)"><path d="M153.442,212.839,0,59.4,59.4,0,212.839,153.442Z" transform="translate(0 0)" fill="url(#d)"/></g></g><g transform="translate(46.059 -23.986)" clip-path="url(#e)"><g transform="translate(170.941 47.986) rotate(180)"><path d="M217,84H0V0H217Z" transform="translate(0 0)" fill="url(#f)"/></g></g><g transform="translate(28.609 -17.999)" clip-path="url(#g)"><g transform="translate(230.391 -0.001) rotate(135)"><path d="M153.442,212.839,0,59.4,59.4,0,212.839,153.442Z" transform="translate(0 0)" fill="url(#h)"/></g></g><g transform="translate(28.609 -36.004)" clip-path="url(#i)"><g transform="translate(79.891 -132.496) rotate(45)"><path d="M0,153.442,153.442,0l59.4,59.4L59.4,212.839Z" transform="translate(0 0)" fill="url(#j)"/></g></g><g transform="translate(0 -60)" clip-path="url(#a)"><g transform="translate(28.61 47.785)" opacity="0.2"><g clip-path="url(#l)"><g transform="translate(0.001 0)"><path d="M6.637,0-13.684,11.547a2.335,2.335,0,0,1-2.806.014l-.1.1.1.1h0a2.333,2.333,0,0,0,2.806-.014L6.767.13Z" transform="translate(16.593)"/></g></g></g><g transform="translate(27.962 57.279)" opacity="0.12"><g transform="translate(0 0)"><g clip-path="url(#m)"><g transform="translate(0 0)"><path d="M.185.562A2.8,2.8,0,0,1-.463-1.4v.2A2.8,2.8,0,0,0,.185.766l.1-.1Z" transform="translate(0.463 1.405)"/></g></g></g></g><g transform="translate(51.84 42.002)" opacity="0.12"><g clip-path="url(#n)"><g transform="translate(0 0.001)"><path d="M1.994.519l-6.98,3.966.13.13L1.994.723A2.455,2.455,0,0,0,3.462-1.3,2.606,2.606,0,0,1,1.994.519" transform="translate(4.986 1.297)"/></g></g></g><g transform="translate(27.962 23.997)" opacity="0.25"><g clip-path="url(#o)"><g transform="translate(0 0)"><path d="M1.016.193l27.3,15.512a2.605,2.605,0,0,1,1.467,1.817A2.454,2.454,0,0,0,28.318,15.5L1.016-.011C-.941-1.123-2.541-.2-2.541,2.041v.2c0-2.24,1.6-3.164,3.557-2.052" transform="translate(2.541 0.482)" fill="#fff"/></g></g></g><g transform="translate(71.789 23.8)"><path d="M.308,2.105H1.8A3.151,3.151,0,0,0,4.1,1.272a3.121,3.121,0,0,0,.85-2.335A3.123,3.123,0,0,0,4.1-3.391,3.143,3.143,0,0,0,1.8-4.23H.308ZM-.771,3.137v-8.4H1.8A4.175,4.175,0,0,1,4.9-4.1,4.114,4.114,0,0,1,6.057-1.063,4.112,4.112,0,0,1,4.9,1.969,4.175,4.175,0,0,1,1.8,3.137Z" transform="translate(0.771 5.263)" fill="#fff"/></g><g transform="translate(71.789 23.8)"><path d="M.308,2.105H1.8A3.151,3.151,0,0,0,4.1,1.272a3.121,3.121,0,0,0,.85-2.335A3.123,3.123,0,0,0,4.1-3.391,3.143,3.143,0,0,0,1.8-4.23H.308ZM-.771,3.137v-8.4H1.8A4.175,4.175,0,0,1,4.9-4.1,4.114,4.114,0,0,1,6.057-1.063,4.112,4.112,0,0,1,4.9,1.969,4.175,4.175,0,0,1,1.8,3.137Z" transform="translate(0.771 5.263)" fill="none" stroke="#fff" stroke-width="0.2"/></g><path d="M57.237-43h1.079v8.4H57.237Z" transform="translate(22.895 66.8)" fill="#fff" stroke="#fff" stroke-width="0.2"/><g transform="translate(82.571 23.612)"><path d="M.838,2.507a3.127,3.127,0,0,1-1.788-.6A2.766,2.766,0,0,1-2.1.232l.986-.4A2.249,2.249,0,0,0-.388,1a1.826,1.826,0,0,0,1.226.476,1.962,1.962,0,0,0,1.2-.37,1.181,1.181,0,0,0,.5-1,1.284,1.284,0,0,0-.5-1.085,5.181,5.181,0,0,0-1.578-.71A4.228,4.228,0,0,1-1.227-2.6,1.905,1.905,0,0,1-1.8-4.027,2.083,2.083,0,0,1-1.086-5.6,2.625,2.625,0,0,1,.779-6.268a2.7,2.7,0,0,1,1.736.533,2.466,2.466,0,0,1,.868,1.168l-.984.41A1.472,1.472,0,0,0,1.877-4.9,1.649,1.649,0,0,0,.8-5.235a1.66,1.66,0,0,0-1.061.346A1.056,1.056,0,0,0-.7-4.027a.979.979,0,0,0,.4.791A3.893,3.893,0,0,0,.9-2.655a9.942,9.942,0,0,1,1.039.388,4.747,4.747,0,0,1,.844.5,1.99,1.99,0,0,1,.645.774A2.513,2.513,0,0,1,3.642.08,2.316,2.316,0,0,1,3.39,1.17a2.053,2.053,0,0,1-.669.763,3.33,3.33,0,0,1-.9.428,3.4,3.4,0,0,1-.986.146" transform="translate(2.095 6.268)" fill="#fff"/></g><g transform="translate(82.571 23.612)"><path d="M.838,2.507a3.127,3.127,0,0,1-1.788-.6A2.766,2.766,0,0,1-2.1.232l.986-.4A2.249,2.249,0,0,0-.388,1a1.826,1.826,0,0,0,1.226.476,1.962,1.962,0,0,0,1.2-.37,1.181,1.181,0,0,0,.5-1,1.284,1.284,0,0,0-.5-1.085,5.181,5.181,0,0,0-1.578-.71A4.228,4.228,0,0,1-1.227-2.6,1.905,1.905,0,0,1-1.8-4.027,2.083,2.083,0,0,1-1.086-5.6,2.625,2.625,0,0,1,.779-6.268a2.7,2.7,0,0,1,1.736.533,2.466,2.466,0,0,1,.868,1.168l-.984.41A1.472,1.472,0,0,0,1.877-4.9,1.649,1.649,0,0,0,.8-5.235a1.66,1.66,0,0,0-1.061.346A1.056,1.056,0,0,0-.7-4.027a.979.979,0,0,0,.4.791A3.893,3.893,0,0,0,.9-2.655a9.942,9.942,0,0,1,1.039.388,4.747,4.747,0,0,1,.844.5,1.99,1.99,0,0,1,.645.774A2.513,2.513,0,0,1,3.642.08,2.316,2.316,0,0,1,3.39,1.17a2.053,2.053,0,0,1-.669.763,3.33,3.33,0,0,1-.9.428A3.4,3.4,0,0,1,.838,2.507Z" transform="translate(2.095 6.268)" fill="none" stroke="#fff" stroke-width="0.2"/></g><g transform="translate(89.856 23.8)"><path d="M.308,1.133H2.116A1.391,1.391,0,0,0,3.206.676a1.475,1.475,0,0,0,.41-1.009,1.475,1.475,0,0,0-.41-1.009A1.392,1.392,0,0,0,2.116-1.8H.308Zm0,4.435H-.771v-8.4H2.092a2.655,2.655,0,0,1,1.848.71A2.313,2.313,0,0,1,4.72-.333a2.308,2.308,0,0,1-.78,1.788,2.65,2.65,0,0,1-1.848.711H.308Z" transform="translate(0.771 2.832)" fill="#fff"/></g><g transform="translate(89.856 23.8)"><path d="M.308,1.133H2.116A1.391,1.391,0,0,0,3.206.676a1.475,1.475,0,0,0,.41-1.009,1.475,1.475,0,0,0-.41-1.009A1.392,1.392,0,0,0,2.116-1.8H.308Zm0,4.435H-.771v-8.4H2.092a2.655,2.655,0,0,1,1.848.71A2.313,2.313,0,0,1,4.72-.333a2.308,2.308,0,0,1-.78,1.788,2.65,2.65,0,0,1-1.848.711H.308Z" transform="translate(0.771 2.832)" fill="none" stroke="#fff" stroke-width="0.2"/></g><g transform="translate(96.18 23.613)"><path d="M.581,1.942a3.081,3.081,0,0,0,2.282.944,3.083,3.083,0,0,0,2.282-.944A3.29,3.29,0,0,0,6.079-.468a3.288,3.288,0,0,0-.934-2.411,3.084,3.084,0,0,0-2.282-.945,3.082,3.082,0,0,0-2.282.945A3.292,3.292,0,0,0-.351-.468,3.294,3.294,0,0,0,.581,1.942m5.362.7a4.12,4.12,0,0,1-3.08,1.274A4.115,4.115,0,0,1-.215,2.645,4.292,4.292,0,0,1-1.453-.468,4.3,4.3,0,0,1-.215-3.583,4.119,4.119,0,0,1,2.863-4.856,4.118,4.118,0,0,1,5.938-3.578,4.294,4.294,0,0,1,7.181-.468,4.3,4.3,0,0,1,5.943,2.645" transform="translate(1.453 4.856)" fill="#fff"/></g><g transform="translate(96.18 23.613)"><path d="M.581,1.942a3.081,3.081,0,0,0,2.282.944,3.083,3.083,0,0,0,2.282-.944A3.29,3.29,0,0,0,6.079-.468a3.288,3.288,0,0,0-.934-2.411,3.084,3.084,0,0,0-2.282-.945,3.082,3.082,0,0,0-2.282.945A3.292,3.292,0,0,0-.351-.468,3.294,3.294,0,0,0,.581,1.942Zm5.362.7a4.12,4.12,0,0,1-3.08,1.274A4.115,4.115,0,0,1-.215,2.645,4.292,4.292,0,0,1-1.453-.468,4.3,4.3,0,0,1-.215-3.583,4.119,4.119,0,0,1,2.863-4.856,4.118,4.118,0,0,1,5.938-3.578,4.294,4.294,0,0,1,7.181-.468,4.3,4.3,0,0,1,5.943,2.645Z" transform="translate(1.453 4.856)" fill="none" stroke="#fff" stroke-width="0.2"/></g><g transform="translate(106.329 23.8)"><path d="M0,2.4V-6H1.313L5.4.534h.048L5.4-1.085V-6H6.476V2.4H5.349L1.079-4.452H1.032l.048,1.62V2.4Z" transform="translate(0 6)" fill="#fff"/></g><g transform="translate(106.329 23.8)"><path d="M0,2.4V-6H1.313L5.4.534h.048L5.4-1.085V-6H6.476V2.4H5.349L1.079-4.452H1.032l.048,1.62V2.4Z" transform="translate(0 6)" fill="none" stroke="#fff" stroke-width="0.2"/></g><path d="M81.949-43h1.079v8.4H81.949Z" transform="translate(32.78 66.8)" fill="#fff" stroke="#fff" stroke-width="0.2"/><g transform="translate(117.731 23.8)"><path d="M.308,2.105H2.48A1.286,1.286,0,0,0,3.488,1.67,1.391,1.391,0,0,0,3.876.721a1.36,1.36,0,0,0-.4-.945A1.367,1.367,0,0,0,2.432-.653H.308Zm0-3.766H2.267a1.264,1.264,0,0,0,.981-.4,1.294,1.294,0,0,0,.368-.886,1.282,1.282,0,0,0-.358-.879,1.2,1.2,0,0,0-.942-.4H.308Zm-1.079,4.8v-8.4H2.267a2.472,2.472,0,0,1,1.708.651A2.112,2.112,0,0,1,4.7-2.975,1.821,1.821,0,0,1,4.385-1.92a1.943,1.943,0,0,1-.827.693v.046A2.141,2.141,0,0,1,4.58-.453a1.912,1.912,0,0,1,.4,1.2,2.205,2.205,0,0,1-.757,1.712,2.586,2.586,0,0,1-1.789.68Z" transform="translate(0.771 5.263)" fill="#fff"/></g><g transform="translate(117.731 23.8)"><path d="M.308,2.105H2.48A1.286,1.286,0,0,0,3.488,1.67,1.391,1.391,0,0,0,3.876.721a1.36,1.36,0,0,0-.4-.945A1.367,1.367,0,0,0,2.432-.653H.308Zm0-3.766H2.267a1.264,1.264,0,0,0,.981-.4,1.294,1.294,0,0,0,.368-.886,1.282,1.282,0,0,0-.358-.879,1.2,1.2,0,0,0-.942-.4H.308Zm-1.079,4.8v-8.4H2.267a2.472,2.472,0,0,1,1.708.651A2.112,2.112,0,0,1,4.7-2.975,1.821,1.821,0,0,1,4.385-1.92a1.943,1.943,0,0,1-.827.693v.046A2.141,2.141,0,0,1,4.58-.453a1.912,1.912,0,0,1,.4,1.2,2.205,2.205,0,0,1-.757,1.712,2.586,2.586,0,0,1-1.789.68Z" transform="translate(0.771 5.263)" fill="none" stroke="#fff" stroke-width="0.2"/></g><g transform="translate(124.935 23.8)"><path d="M0,2.4V-6H1.079V1.368H4.715V2.4Z" transform="translate(0 6)" fill="#fff"/></g><g transform="translate(124.935 23.8)"><path d="M0,2.4V-6H1.079V1.368H4.715V2.4Z" transform="translate(0 6)" fill="none" stroke="#fff" stroke-width="0.2"/></g><g transform="translate(131.012 23.8)"><path d="M1.4.295H-2.424V2.958H1.025V3.967H-2.424V6.63H1.4V7.663H-3.5v-8.4H1.4Z" transform="translate(3.503 0.737)" fill="#fff"/></g><g transform="translate(131.012 23.8)"><path d="M1.4.295H-2.424V2.958H1.025V3.967H-2.424V6.63H1.4V7.663H-3.5v-8.4H1.4Z" transform="translate(3.503 0.737)" fill="none" stroke="#fff" stroke-width="0.2"/></g><g transform="translate(139.506 23.612)"><path d="M.838,2.507a3.127,3.127,0,0,1-1.788-.6A2.766,2.766,0,0,1-2.1.232l.986-.4A2.249,2.249,0,0,0-.388,1a1.826,1.826,0,0,0,1.226.476,1.962,1.962,0,0,0,1.2-.37,1.181,1.181,0,0,0,.5-1,1.284,1.284,0,0,0-.5-1.085,5.181,5.181,0,0,0-1.578-.71A4.228,4.228,0,0,1-1.227-2.6,1.905,1.905,0,0,1-1.8-4.027,2.083,2.083,0,0,1-1.086-5.6,2.625,2.625,0,0,1,.779-6.268a2.7,2.7,0,0,1,1.736.533,2.466,2.466,0,0,1,.868,1.168l-.984.41A1.472,1.472,0,0,0,1.877-4.9,1.649,1.649,0,0,0,.8-5.235a1.66,1.66,0,0,0-1.061.346A1.056,1.056,0,0,0-.7-4.027a.979.979,0,0,0,.4.791A3.893,3.893,0,0,0,.9-2.655a9.942,9.942,0,0,1,1.039.388,4.747,4.747,0,0,1,.844.5,1.99,1.99,0,0,1,.645.774A2.513,2.513,0,0,1,3.642.08,2.316,2.316,0,0,1,3.39,1.17a2.053,2.053,0,0,1-.669.763,3.33,3.33,0,0,1-.9.428,3.4,3.4,0,0,1-.986.146" transform="translate(2.095 6.268)" fill="#fff"/></g><g transform="translate(139.506 23.612)"><path d="M.838,2.507a3.127,3.127,0,0,1-1.788-.6A2.766,2.766,0,0,1-2.1.232l.986-.4A2.249,2.249,0,0,0-.388,1a1.826,1.826,0,0,0,1.226.476,1.962,1.962,0,0,0,1.2-.37,1.181,1.181,0,0,0,.5-1,1.284,1.284,0,0,0-.5-1.085,5.181,5.181,0,0,0-1.578-.71A4.228,4.228,0,0,1-1.227-2.6,1.905,1.905,0,0,1-1.8-4.027,2.083,2.083,0,0,1-1.086-5.6,2.625,2.625,0,0,1,.779-6.268a2.7,2.7,0,0,1,1.736.533,2.466,2.466,0,0,1,.868,1.168l-.984.41A1.472,1.472,0,0,0,1.877-4.9,1.649,1.649,0,0,0,.8-5.235a1.66,1.66,0,0,0-1.061.346A1.056,1.056,0,0,0-.7-4.027a.979.979,0,0,0,.4.791A3.893,3.893,0,0,0,.9-2.655a9.942,9.942,0,0,1,1.039.388,4.747,4.747,0,0,1,.844.5,1.99,1.99,0,0,1,.645.774A2.513,2.513,0,0,1,3.642.08,2.316,2.316,0,0,1,3.39,1.17a2.053,2.053,0,0,1-.669.763,3.33,3.33,0,0,1-.9.428A3.4,3.4,0,0,1,.838,2.507Z" transform="translate(2.095 6.268)" fill="none" stroke="#fff" stroke-width="0.2"/></g><g transform="translate(146.603 23.8)"><path d="M.888,2.454a2.949,2.949,0,0,1-2.247-.914A3.347,3.347,0,0,1-2.221-.855V-6.134h1.079V-.807A2.407,2.407,0,0,0-.619.806a1.866,1.866,0,0,0,1.508.616A1.865,1.865,0,0,0,2.395.806,2.407,2.407,0,0,0,2.917-.807V-6.134H4V-.855a3.4,3.4,0,0,1-.84,2.4,2.936,2.936,0,0,1-2.269.909" transform="translate(2.221 6.134)" fill="#fff"/></g><g transform="translate(146.603 23.8)"><path d="M.888,2.454a2.949,2.949,0,0,1-2.247-.914A3.347,3.347,0,0,1-2.221-.855V-6.134h1.079V-.807A2.407,2.407,0,0,0-.619.806a1.866,1.866,0,0,0,1.508.616A1.865,1.865,0,0,0,2.395.806,2.407,2.407,0,0,0,2.917-.807V-6.134H4V-.855a3.4,3.4,0,0,1-.84,2.4A2.936,2.936,0,0,1,.888,2.454Z" transform="translate(2.221 6.134)" fill="none" stroke="#fff" stroke-width="0.2"/></g><g transform="translate(154.557 23.8)"><path d="M.308,1.14H2.044A1.587,1.587,0,0,0,3.153.717,1.377,1.377,0,0,0,3.617-.35a1.475,1.475,0,0,0-.41-1.009,1.392,1.392,0,0,0-1.091-.458H.308ZM-.771,5.551v-8.4H2.092a2.655,2.655,0,0,1,1.848.71A2.313,2.313,0,0,1,4.72-.35,2.316,2.316,0,0,1,4.144,1.2a2.484,2.484,0,0,1-1.431.851L2.69,2.09,5.049,5.5v.046H3.771l-2.265-3.4H.308v3.4Z" transform="translate(0.771 2.849)" fill="#fff"/></g><g transform="translate(154.557 23.8)"><path d="M.308,1.14H2.044A1.587,1.587,0,0,0,3.153.717,1.377,1.377,0,0,0,3.617-.35a1.475,1.475,0,0,0-.41-1.009,1.392,1.392,0,0,0-1.091-.458H.308ZM-.771,5.551v-8.4H2.092a2.655,2.655,0,0,1,1.848.71A2.313,2.313,0,0,1,4.72-.35,2.316,2.316,0,0,1,4.144,1.2a2.484,2.484,0,0,1-1.431.851L2.69,2.09,5.049,5.5v.046H3.771l-2.265-3.4H.308v3.4Z" transform="translate(0.771 2.849)" fill="none" stroke="#fff" stroke-width="0.2"/></g></g></g></svg>