<svg xmlns="http://www.w3.org/2000/svg" xmlns:xlink="http://www.w3.org/1999/xlink" width="255" height="675" viewBox="0 0 255 675"><defs><clipPath id="a"><rect width="255" height="675" transform="translate(1511 981)" fill="#f47820" stroke="#707070" stroke-width="1"/></clipPath></defs><g transform="translate(-1511 -981)" clip-path="url(#a)"><g transform="translate(1634.795 1381.748) rotate(171)"><path d="M504.939,174.742c7.364,78.1-171.215,129.046-324.923,93.493S-44.2,93.848,29.143,19.871,497.576,96.64,504.939,174.742Z" transform="translate(0 0)" fill="#fdd835"/></g><path d="M102.674.122C79.656,1.948,64.88,17.137,58,38.38c-3.707,11.448-4.132,23.209-6.192,34.974-3.1,17.7-9.767,31.114-22.8,43.725a44.006,44.006,0,0,0-9.125,12.206A51.988,51.988,0,0,0,9.348,144.341c-3.429,7.568-4.4,16.649-.44,24.194,1.064,2.028,3.72,6.1,6.472,7.95C5.076,198.431-.59,222.466.049,246.47c.386,14.49,1.093,28.987,1.919,43.459.222,3.886,1.488,10.3,3.388,3.786,1.74-5.961-.442-15.319-.644-21.547C3.73,241.831,2.89,214.247,15.378,185.9q1.964-4.456,4.144-8.841a2.937,2.937,0,0,0,.243-.166c.055.042.105.088.16.13.092-.165.219-.361.366-.58a7.819,7.819,0,0,0,1.121-1.572c1.108-1.535,2.361-3.338,2.368-4.326,0-.008,0-.02,0-.027a408.416,408.416,0,0,1,25.631-36.236c-.068.085,9.811-13.365,8.283-5.927-.736,3.585-8,10.411-10.937,14.208a353.964,353.964,0,0,0-20.45,29.5c-.852.49-2.057,2.9-2.928,4.687-.481.908-.93,1.823-1.371,2.62,22.447,7.416,39.908-7.522,51.814-24.9.014-.02.027-.042.041-.062,3.623-4.8,7.335-9.568,11.972-13.364,7.736-6.333,16.021-7.45,25.142-10.567,24.874-8.5,35.45-40.735,38.808-64.655,3.79-26.985-14.747-68.365-47.109-65.7" transform="matrix(0.743, 0.669, -0.669, 0.743, 1636.327, 1266.057)" fill="#05897b"/><path d="M78.5,28.218C83.56,21.006,92.946,2.69,100.065.113c4.585-1.66,3.248,15.51,3.3,18.784.221,12.666-1.013,25.252-2.535,37.812-2.743,22.652-11.714,42.825-24.019,62.1-6.332,9.92-13.758,19.961-24.044,26.151-4.735,2.851-10.432,3.328-15.107,5.784-5.446,2.859-2.48.548-4.934,6.222-3.408,7.878-4.5,18.042-6.075,26.449-7.24,38.59-24.769,242.588-21.73,281.842.27,3.479-4.582,4.311-4.824.064C-1.185,442.8,9.954,286.845,15.574,235.841S26.881,139.78,32.583,122.134C39.5,100.726,51.995,74.982,62.395,55.018A237.394,237.394,0,0,1,78.5,28.218Z" transform="matrix(-0.469, 0.883, -0.883, -0.469, 1679, 1564.56)" fill="#f47820"/><path d="M276.9,6.811c-37.316,27.143-72.48,59.553-101.743,95.209-17.73,21.6-33.711,44.756-49.581,67.74-24.572,35.588-48.748,71.349-68.3,110C37.6,318.629,13.292,362.74,9.263,406.82c10.8-41.765,35.415-80.383,53.925-119.006,8.837-18.438,18.586-36.251,28.841-53.926,9.949-17.146,21.084-33.661,31.977-50.217q7.958-12.094,16.074-24.081c1.61-2.387,5.226-9.988,7.657-11.026,2.447-1.045,11.208,1.986,14.44,1.858a74.879,74.879,0,0,0,19.389-3.736c11.886-3.784,23.7-10.382,33.887-17.535C239.027,112.6,256.7,87.461,268.065,61.2c2.207-5.1,18.379-63.389,21.992-62.682-.094-.319-.175-.641-.24-.967Q283.318,2.124,276.9,6.811Z" transform="translate(1630.803 1268.225) rotate(68)" fill="#80cbc4"/><path d="M79.245,373.658c5.106,6.125,14.581,21.68,21.767,23.868,4.629,1.41,3.279-13.172,3.336-15.953.223-10.757-1.022-21.446-2.559-32.113-2.769-19.237-11.825-36.37-24.246-52.743-6.391-8.425-13.888-16.952-24.271-22.209-4.779-2.421-10.53-2.826-15.25-4.912-5.5-2.428-2.5-.465-4.981-5.284-3.44-6.691-4.541-15.323-6.132-22.462C19.6,209.079,1.905,35.833,4.973,2.5,5.245-.459.348-1.165.1,2.442c-1.3,19.126,9.945,151.576,15.618,194.891s11.414,81.581,17.17,96.567c6.983,18.181,19.6,40.044,30.094,57A198.256,198.256,0,0,0,79.245,373.658Z" transform="matrix(-0.616, -0.788, 0.788, -0.616, 1358.669, 1307.696)" fill="#80cbc4"/><path d="M1.913,259.969c6.119-1.2,16.118-15.039,21.162-20.314a197.547,197.547,0,0,0,16.56-19.947,337.377,337.377,0,0,0,29.3-47.788,444.19,444.19,0,0,0,32.6-84.838,349.968,349.968,0,0,0,9.891-55.647c.353-3.523,4.047-30.688-1.276-31.42-4.787-.659-3.309,20.626-3.54,23.522C104,56.2,96.177,87.985,85.3,118.774c-2.37,6.707-4.571,14.922-8.36,20.958-2.729,4.347-.02,2.831-4.815,4.477-4.118,1.414-8.81,1.068-13.027,2.8-9.161,3.757-16.5,11.05-22.925,18.385-12.5,14.257-22.4,29.68-27.558,47.948A230.852,230.852,0,0,0,1.658,244.1C1.281,246.8-2.028,260.74,1.913,259.969Z" transform="translate(1450.909 1336.712) rotate(-108)" fill="#f47820"/><path d="M14.061,474.284c23.05-39.974,41.991-83.885,54.222-128.36,7.41-26.947,12.593-54.6,17.742-82.05C94,221.368,101.538,178.866,103.683,135.6c2.158-43.511,6.425-93.7-7.822-135.6,7.117,42.548.341,87.838-.859,130.65-.573,20.438-2.235,40.676-4.414,60.995-2.115,19.71-5.57,39.326-8.787,58.881q-2.351,14.286-4.889,28.537c-.5,2.836-.712,11.25-2.51,13.187S63.354,295,60.454,296.426a74.877,74.877,0,0,0-16.193,11.3c-9.319,8.291-17.426,19.123-23.825,29.8C5.631,362.236-.288,392.39.011,421.006c.057,5.556,8.993,65.384,5.4,66.208q.324.38.613.786Q10.1,481.177,14.061,474.284Z" transform="matrix(-0.616, -0.788, 0.788, -0.616, 1383.451, 1399.057)" fill="#05897b"/><path d="M164.1,5.1a39.778,39.778,0,0,0-.85-5.1A15.238,15.238,0,0,1,164.1,5.1Zm-9.209,39.972c-4.946,10.48-12,19.537-20.131,27.6,1.625,5.9,17.422,15.121,7.433,20-5.3,2.58-10.334-2.426-11.2-7.493-.593-3.482.813-7.745,2.239-11.02q-3.83,3.68-7.915,7.1c-3.755,3.148-7.59,6.2-11.458,9.2,5.8,6.048,10.711,22.728,2.394,24.977-12.28,3.311-5.3-18.723-4.235-22.865a.657.657,0,0,1,.552.243c-.047-.387-.1-.8-.179-1.22-7.4,5.718-14.9,11.312-22.18,17.184a31.885,31.885,0,0,1,2.238,3.3,35.779,35.779,0,0,1,4.333,7.068c1.745,4.025,3.3,10.382-1.993,12.418-5.754,2.22-8.055-5-7.873-9.222.126-2.921,1.067-5.653,1.631-8.494.177-.886-.111-4.936,1.014-3.141a8.622,8.622,0,0,1,.037-1.43q-1.959,1.59-3.895,3.213a1.511,1.511,0,0,1,.083.491,1.461,1.461,0,0,1-2.161,1.265q-2.556,2.187-5.057,4.447c-3.524,3.2-7.1,6.494-10.659,9.864.7.667.363,1.522,1.012,2.224s1.974,1.14,2.745,1.8a19.446,19.446,0,0,1,4.59,6.311C78.06,142.681,80.239,150.55,74.3,152c-6.118,1.5-8.785-6.106-8.928-10.781A118.923,118.923,0,0,1,67.12,129.3c-6.584,6.263-13.078,12.779-19,19.444,1.685.1,6.283,3.808,7.2,4.8,2.237,2.422,5.718,7.7,1.444,10.168-3.8,2.192-8.148-1.5-9.544-4.936a47.21,47.21,0,0,1-.82-8.068c-2.456,2.83-4.806,5.682-7,8.551q-2.2,2.862-4.144,5.885a2.751,2.751,0,0,1,.769.84c6.074,1.361,13.387,11.333,6.014,14.283-3.51,1.4-7.056-2.058-8.595-4.819a35.653,35.653,0,0,1-1.068-5.537A114.9,114.9,0,0,0,23.2,191.1a1.34,1.34,0,0,1,.979,1.3c2.886,1.852,5.162,3.388,7.068,6.758,1.185,2.094,3.266,6.845-.585,7.771-5.011,1.2-7.716-6.494-7.925-10.228-.024-.433.043-1.687.119-2.834a1.658,1.658,0,0,1-.514-.036c-1.375,4.56-2.524,9.192-3.49,13.84,2.648,1.008,2.372,15.177.474,17.1-4.245,4.3-6.731-2.363-6.336-5.794.465-4.046,2.5-7.643,4.861-10.806.253-.334.185-.321.22.165a.97.97,0,0,1,.261-.53,61.587,61.587,0,0,1,.1-6.227,144.139,144.139,0,0,1,2.7-16.11q.436-1.932.966-3.828a31.439,31.439,0,0,1-6.435,3.669c-3.033,1.173-7.677,2.368-10.5-.037a4.96,4.96,0,0,1-.177-7.425c2.515-2.532,6.849-2.208,10.073-1.779,1.458.194,9.247,1.23,7.326,2.413a6.319,6.319,0,0,0,.778-.322q.306-.926.637-1.845c-.044-.029-.082-.06-.13-.09.052.026.088.054.134.08a71.877,71.877,0,0,1,8.99-17.245,16.9,16.9,0,0,1-4.1.869c-4.108.3-12.525-3.319-7.676-8.512,4.649-4.979,11.17.966,16.1,2a232.6,232.6,0,0,1,16.713-18.574,1.325,1.325,0,0,1-.777-.719c-2.293,1.016-4.7,2.515-6.794,2.846-3.016.476-9.152.539-11.266-2.249-2.6-3.428.511-5.939,3.819-6.4,4.8-.664,10.894,1.983,15.382,3.79a1.511,1.511,0,0,1,1.41.553l.3.113c5.962-5.9,12.129-11.589,18.253-17.147h-.189a15.812,15.812,0,0,1-5.027,1.982c-4.134.781-8.935.534-12.093-2.593s-4.044-8.317-.458-11.44c7.178-6.251,16.454,9.346,19.867,10.156,6.221-5.585,12.761-10.765,19.393-15.829a11.311,11.311,0,0,1-2.249.337C87.132,98.509,72.918,90.11,80.953,83c7-6.2,14.048,6.805,19.183,11.491,6.246-4.716,12.524-9.4,18.643-14.28a17.034,17.034,0,0,1-9.686-.569c-3.481-1.256-9.049-4.226-6.562-8.884,2.529-4.738,9.268-2.169,12.756-.439,1.9.943,5.658,3.986,9.023,5.361,9.791-8.319,18.381-17.6,25.1-28.706a102.857,102.857,0,0,0,9.942-22.136c1.565-4.933,4.571-13.2,4.4-19.736C165.513,18.26,160.266,33.677,154.887,45.074ZM17.855,200.856c-.521,0-2.476,5.285-3.091,6.067a17.62,17.62,0,0,1-6.971,5.055c-4.282,1.851-9.721-.841-7.113-6.191,2.082-4.271,7.722-5.13,12.606-5.13C14.954,200.657,16.535,200.758,17.855,200.856Z" transform="translate(1472.214 1426.609) rotate(-123)" fill="#05897b"/></g></svg>