<svg xmlns="http://www.w3.org/2000/svg" width="255" height="675" onclick="hi.reset().play();" style="" id="test">
  <defs>
    <clipPath id="a">
      <path transform="translate(153 981)" fill="#f47820" stroke="#707070" d="M0 0h255v675H0z" class="LFPmwrCf_0"></path>
    </clipPath>
  </defs>
  <g transform="translate(-153 -981)" clip-path="url(#a)">
    <path
      data-duration="130"
      d="M312.697 1655.062c15.705 2.753 36.378-4.079 40.165-21.055 2.752-12.333 3.895-24.826 7.315-37.057a101.666 101.666 0 0 1 12.59-27.48c5.27-8.21 14.9-14.571 18.31-23.615 2.172-5.762 2.385-14.217 1.101-20.27-1.56-7.36-.34-6.643 5.216-11.98 10.886-10.463 20.87-21.33 28.591-34.465 11.127-18.92 19.676-41.578 19.128-63.844-.07-2.827.663-12.857-3.077-14.019-4.176-1.301-2.876 4.644-2.873 6.512.016 11.928.05 22.355-3.16 34.074-12.396 45.212-49.134 71.507-75.418 107.95-1.429 1.871-4.512 6.365-6.636 9.317-3.35 4.663-7.268 13.84-11.43 17.088-7.839 6.127.3-7.122 1.988-9.635 2.136-3.179 4.47-6.549 6.596-9.304 9.753-12.78 20.597-26.704 30.665-39.875-35.036-12.62-65.718 27.605-78.873 54.908-10.842 22.49-27.084 76.2 9.801 82.75"
      fill="#80cbc4"
      class="LFPmwrCf_1"></path>
    <path data-duration="130" d="M937.977 1188.006c38.984 60.925-151.914 201.54-347.027 256.514s-332.153-21.737-274.328-123.628 582.37-193.81 621.355-132.886z" fill="#fdd835" class="LFPmwrCf_2"></path>
    <path
      data-duration="130"
      d="M312.697 1655.062c15.705 2.753 36.378-4.079 40.165-21.055 2.752-12.333 3.895-24.826 7.315-37.057a101.666 101.666 0 0 1 12.59-27.48c5.27-8.21 14.9-14.571 18.31-23.615 2.172-5.762 2.385-14.217 1.101-20.27-1.56-7.36-.34-6.643 5.216-11.98 10.886-10.463 20.87-21.33 28.591-34.465 11.127-18.92 19.676-41.578 19.128-63.844-.07-2.827.663-12.857-3.077-14.019-4.176-1.301-2.876 4.644-2.873 6.512.016 11.928.05 22.355-3.16 34.074-12.396 45.212-49.134 71.507-75.418 107.95-1.429 1.871-4.512 6.365-6.636 9.317-3.35 4.663-7.268 13.84-11.43 17.088-7.839 6.127.3-7.122 1.988-9.635 2.136-3.179 4.47-6.549 6.596-9.304 9.753-12.78 20.597-26.704 30.665-39.875-35.036-12.62-65.718 27.605-78.873 54.908-10.842 22.49-27.084 76.2 9.801 82.75"
      fill="#80cbc4"
      class="LFPmwrCf_3"></path>
    <path
      data-duration="130"
      d="M212.35 1471.739c17.925 14.24 38.912 13.218 58.265 2.464 10.43-5.794 18.694-14.034 28.141-21.174 14.217-10.74 28.124-15.958 46.102-16.29a43.634 43.634 0 0 0 14.87-2.679 51.548 51.548 0 0 0 17.823-3.795c7.601-3.166 14.448-9.098 16.679-17.247.6-2.19 1.427-6.94.682-10.142 22.314-8.946 42.676-22.544 58.446-40.383 9.519-10.77 18.808-21.76 27.998-32.81 2.467-2.969 5.889-8.478.103-5.038-5.293 3.147-10.039 11.407-14.104 16.06-19.802 22.664-37.847 43.234-66.07 55.344q-4.438 1.903-8.983 3.609a2.913 2.913 0 0 0-.29-.044c-.01-.068-.012-.132-.027-.203a9.097 9.097 0 0 1-.658.173 7.753 7.753 0 0 0-1.877.382c-1.842.363-3.969.824-4.642 1.536l-.018.02a404.961 404.961 0 0 1-43.09 8.946c.107-.016-16.152 3.057-10.014-1.303 2.957-2.102 12.843-2.138 17.539-2.907a350.969 350.969 0 0 0 34.778-7.563c.95.221 3.449-.709 5.29-1.42.962-.333 1.906-.693 2.767-.975-11.262-20.558-34.027-21.532-54.41-16.984-.025.005-.048.012-.071.018-5.875 1.031-11.79 1.979-17.72 1.595-9.892-.64-16.655-5.431-25.377-9.339-23.786-10.657-53.254 5.568-71.864 20.643-20.996 17.008-35.536 59.55-10.269 79.506"
      fill="#05897b"
      class="LFPmwrCf_4"></path>
    <path
      data-duration="130"
      d="M194.235 1557.244c33.762-1.84 65.11-18.842 93.355-35.967 31.545-19.129 60.98-40.977 86.353-67.796 16.67-17.619 33.807-35.011 49.302-53.69a257.81 257.81 0 0 0 15.569-20.672c.394-.588 11.132-16.564 5.973-15.32-2.933.708-11.165 16.547-12.855 18.888a370.133 370.133 0 0 1-31.423 37.197c-18.373 19.446-35.957 39.444-56.126 57.08a90.195 90.195 0 0 1-9.443 7.672c-3.558 2.34-1.391 1.892-4.899.86-3.409-1.004-6.124-3.848-9.897-4.636-14.967-3.126-33.747 7.2-46.674 13.415-14.774 7.112-28.538 16.555-41.622 26.338a336.103 336.103 0 0 0-27.528 22.898 92.511 92.511 0 0 1-8.546 7.65c-.829.596-2.768 1.205-3.345 1.878-1.223 1.423-1.148 3-2.155 4.216q1.978.036 3.958-.013"
      fill="#f47820"
      class="LFPmwrCf_5"></path>
    <path
      data-duration="130"
      d="M252.027 1153.283c-7.158-1.518-23.241-7.328-29.027-4.86-3.727 1.59 6.814 11.267 8.635 13.287a228.014 228.014 0 0 0 22.967 21.54c14.502 12.21 31.385 19.384 49.786 24.128 9.468 2.44 19.67 4.332 29.428 2.265 4.492-.95 8.224-3.888 12.457-5.046 4.928-1.348 1.817-1.072 6.525.985 6.535 2.856 12.956 8.414 18.678 12.63 26.263 19.347 152.506 133.371 172.902 158.945 1.808 2.268 5.227.024 2.968-2.694-11.98-14.414-107.12-102.87-139.435-130.676s-61.302-51.964-74.765-59.455c-16.334-9.09-38.512-17.65-56.145-23.89a197.235 197.235 0 0 0-24.974-7.159z"
      fill="#05897b"
      class="LFPmwrCf_6"></path>
    <path
      data-duration="130"
      d="M354.949 1324.028c-12.768 4.577-6.824 22.859 5.364 19.144 6.737-2.053 8.625-7.677 7.36-12.414 3.28-.308 6.58-.44 9.497-.742a370.66 370.66 0 0 1 26.576-1.75c18.377-.564 36.595.612 54.809 1.282 17.974.664 35.974 1.43 53.771 3.046 15.08 1.37 33.457 2.036 46.915 8.096-27.697-14.105-60.32-18.76-92.443-19.766-31.86-.997-67.18-1.306-99.532 8.598a9.315 9.315 0 0 0-12.317-5.494z"
      fill="#f47820"
      class="LFPmwrCf_7"></path>
    <path
      data-duration="130"
      d="M292.748 998.017c10.404 44.955 26.499 89.988 47.885 130.856 12.959 24.761 28.028 48.52 42.983 72.108 23.156 36.526 46.63 72.75 74.568 105.856 28.096 33.294 59.204 72.91 98.2 93.837-34.223-26.264-60.155-64.008-88.475-96.137-13.52-15.338-26.107-31.273-38.37-47.62-11.896-15.857-22.747-32.56-33.73-49.055q-8.024-12.051-15.887-24.205c-1.569-2.415-7.152-8.713-7.158-11.356s6.204-9.546 7.353-12.567a74.877 74.877 0 0 0 4.136-19.308c1.161-12.419-.297-25.87-2.9-38.043-6.024-28.168-22.26-54.258-41.994-74.983-3.831-4.024-51.17-41.685-49.104-44.738q-.496-.057-.984-.157 1.672 7.77 3.477 15.512z"
      fill="#05897b"
      class="LFPmwrCf_8"></path>
    <path
      data-duration="130"
      d="M159.135 1258.832c-.687-.039-5.358-.453-4.365-1.307-2.014 1.745 5.633-.167-.726 3.138 4.207-.638 6.098 3.107 9.171 5.561a95.375 95.375 0 0 0 16.296 9.946 130.05 130.05 0 0 0 28.027 10.69c21.287 5.272 45.834 5.16 66.813-1.354 10.357-3.216 17.393-8.801 25.895-15.058 5.372-3.95 8.3-2.307 15.307-1.155 14.593 2.402 29.07 4.874 43.493 8.207 17.22 3.978 34.322 8.14 51.376 12.788 57.455 15.654 113.823 35.907 166.268 64.4-27.182-21.555-60.269-37.234-92.555-49.628-23.521-9.028-47.726-15.765-72.145-21.859-5.916-1.474-13.875-2.924-19.368-5.88-3.848-2.072-5.723-6.4-8.662-10.01-11.444-14.055-27.219-26.022-43.395-34.176-17.837-8.993-31.942-5.714-45.873 7.6-5.095 4.87-10.261 12.083-16.543 15.29-6.842 3.494-16.998-.797-24.82-1.884a281.723 281.723 0 0 0-63.797-1.882 122.625 122.625 0 0 0-17.335 2.86c-3.6.853-9.605 3.913-13.062 3.713z"
      fill="#80cbc4"
      class="LFPmwrCf_9"></path>
  </g>
  <style data-made-with="vivus-instant">
    .LFPmwrCf_0 {
      stroke-dasharray: 1860 1862;
      stroke-dashoffset: 1861;
      animation: LFPmwrCf_draw 2000ms linear 0 forwards;
    }
    .LFPmwrCf_1 {
      stroke-dasharray: 798 800;
      stroke-dashoffset: 799;
      animation: LFPmwrCf_draw 2000ms linear 111ms forwards;
    }
    .LFPmwrCf_2 {
      stroke-dasharray: 1501 1503;
      stroke-dashoffset: 1502;
      animation: LFPmwrCf_draw 2000ms linear 222ms forwards;
    }
    .LFPmwrCf_3 {
      stroke-dasharray: 798 800;
      stroke-dashoffset: 799;
      animation: LFPmwrCf_draw 2000ms linear 333ms forwards;
    }
    .LFPmwrCf_4 {
      stroke-dasharray: 863 865;
      stroke-dashoffset: 864;
      animation: LFPmwrCf_draw 2000ms linear 444ms forwards;
    }
    .LFPmwrCf_5 {
      stroke-dasharray: 668 670;
      stroke-dashoffset: 669;
      animation: LFPmwrCf_draw 2000ms linear 555ms forwards;
    }
    .LFPmwrCf_6 {
      stroke-dasharray: 823 825;
      stroke-dashoffset: 824;
      animation: LFPmwrCf_draw 2000ms linear 666ms forwards;
    }
    .LFPmwrCf_7 {
      stroke-dasharray: 451 453;
      stroke-dashoffset: 452;
      animation: LFPmwrCf_draw 2000ms linear 777ms forwards;
    }
    .LFPmwrCf_8 {
      stroke-dasharray: 1028 1030;
      stroke-dashoffset: 1029;
      animation: LFPmwrCf_draw 2000ms linear 888ms forwards;
    }
    .LFPmwrCf_9 {
      stroke-dasharray: 925 927;
      stroke-dashoffset: 926;
      animation: LFPmwrCf_draw 2000ms linear 1000ms forwards;
    }
    @keyframes LFPmwrCf_draw {
      100% {
        stroke-dashoffset: 0;
      }
    }
    @keyframes LFPmwrCf_fade {
      0% {
        stroke-opacity: 1;
      }
      94.44444444444444% {
        stroke-opacity: 1;
      }
      100% {
        stroke-opacity: 0;
      }
    }
  </style>
</svg>
