<svg xmlns="http://www.w3.org/2000/svg" width="18" height="17.996" viewBox="0 0 18 17.996"><path d="M9,1.621c2.4,0,2.686.011,3.636.054a4.91,4.91,0,0,1,1.671.311,2.792,2.792,0,0,1,1.036.671,2.749,2.749,0,0,1,.671,1.036,5,5,0,0,1,.311,1.671c.043.95.054,1.232.054,3.636s-.011,2.686-.054,3.636a4.91,4.91,0,0,1-.311,1.671,2.792,2.792,0,0,1-.671,1.036,2.749,2.749,0,0,1-1.036.671,5,5,0,0,1-1.671.311c-.95.043-1.232.054-3.636.054s-2.686-.011-3.636-.054a4.91,4.91,0,0,1-1.671-.311,2.792,2.792,0,0,1-1.036-.671,2.749,2.749,0,0,1-.671-1.036,5,5,0,0,1-.311-1.671C1.629,11.686,1.618,11.4,1.618,9s.011-2.686.054-3.636a4.91,4.91,0,0,1,.311-1.671,2.792,2.792,0,0,1,.671-1.036,2.749,2.749,0,0,1,1.036-.671,5,5,0,0,1,1.671-.311C6.311,1.629,6.6,1.621,9,1.621M9,0C6.554,0,6.246.011,5.286.054A6.594,6.594,0,0,0,3.1.471,4.385,4.385,0,0,0,1.511,1.511,4.463,4.463,0,0,0,.471,3.1,6.6,6.6,0,0,0,.054,5.289C.011,6.246,0,6.554,0,9s.011,2.75.054,3.711a6.638,6.638,0,0,0,.418,2.186,4.385,4.385,0,0,0,1.039,1.593A4.463,4.463,0,0,0,3.1,17.525a6.6,6.6,0,0,0,2.186.418C6.25,17.986,6.554,18,9,18s2.75-.011,3.711-.054a6.638,6.638,0,0,0,2.186-.418,4.385,4.385,0,0,0,1.593-1.039,4.463,4.463,0,0,0,1.039-1.593,6.6,6.6,0,0,0,.418-2.186C17.989,11.746,18,11.443,18,9s-.011-2.75-.054-3.711A6.638,6.638,0,0,0,17.529,3.1a4.385,4.385,0,0,0-1.039-1.593A4.463,4.463,0,0,0,14.9.468,6.6,6.6,0,0,0,12.711.05C11.746.011,11.439,0,9,0Z" transform="translate(0 0)" fill="#fff"/><path d="M127.121,122.6a4.621,4.621,0,1,0,4.621,4.621A4.622,4.622,0,0,0,127.121,122.6Zm0,7.618a3,3,0,1,1,3-3A3,3,0,0,1,127.121,130.218Z" transform="translate(-118.125 -118.221)" fill="#fff"/><circle cx="1.079" cy="1.079" r="1.079" transform="translate(12.721 3.114)" fill="#fff"/></svg>