<svg id="Calque_1" data-name="Calque 1" xmlns="http://www.w3.org/2000/svg" width="65.73767mm" height="19.44903mm" viewBox="0 0 186.343 55.13112"><title>app_disponible</title><path d="M179.589,55.13106H6.616A6.589,6.589,0,0,1,0,48.65306V6.47806A6.589,6.589,0,0,1,6.616.00006H179.727a6.589,6.589,0,0,1,6.616,6.478v42.175A6.8,6.8,0,0,1,179.589,55.13106Z" style="fill:#b6b8ba"/><path d="M184.826,48.65306a5.235,5.235,0,0,1-5.233,5.237H6.477a5.235,5.235,0,0,1-5.237-5.233v-42.18a5.235,5.235,0,0,1,5.233-5.237H179.589a5.235,5.235,0,0,1,5.237,5.233v42.18Z" style="fill:#0d1007"/><path d="M41.624,27.29006a8.088,8.088,0,0,1,3.857-6.754,8.1,8.1,0,0,0-6.478-3.446c-2.757-.276-5.375,1.654-6.754,1.654s-3.584-1.654-5.789-1.516a8.546,8.546,0,0,0-7.167,4.41c-3.17,5.375-.827,13.369,2.205,17.78,1.516,2.205,3.308,4.548,5.513,4.41s3.032-1.378,5.789-1.378c2.619,0,3.446,1.378,5.789,1.378s3.859-2.205,5.375-4.273a15.80012,15.80012,0,0,0,2.481-4.962c-.138-.276-4.824-1.93-4.824-7.3Z" style="fill:#fff"/><path d="M37.214,14.19606a7.57,7.57,0,0,0,1.791-5.651,9.068,9.068,0,0,0-5.242,2.619,7.3,7.3,0,0,0-1.792,5.375,6.083,6.083,0,0,0,5.237-2.343Z" style="fill:#fff"/><path d="M62.298,43.41606H59.679v-17.642h2.619Z" style="fill:#fff"/><path d="M69.327,26.18706a26.37494,26.37494,0,0,1-2.481,6.2l-1.654.14a30.05254,30.05254,0,0,0,1.516-6.064Z" style="fill:#fff"/><path d="M77.596,36.52506l-1.378-4.41c-.138-.413-.413-1.516-.827-3.17h0c-.138.689-.413,1.792-.827,3.17l-1.378,4.41Zm4.824,6.891H79.526l-1.516-4.962H72.635l-1.516,4.962H68.362l5.375-16.677h3.308Z" style="fill:#fff"/><path d="M93.585,37.34906a4.52205,4.52205,0,0,0-.827-2.894,2.708,2.708,0,0,0-2.343-1.24,2.9,2.9,0,0,0-1.792.689,3.33608,3.33608,0,0,0-1.1,1.792,1.748,1.748,0,0,0-.138.827v1.926a3.13005,3.13005,0,0,0,.827,2.205,2.871,2.871,0,0,0,4.41-.138,4.832,4.832,0,0,0,.965-3.17Zm2.757-.138a6.608,6.608,0,0,1-1.654,4.824,4.719,4.719,0,0,1-3.724,1.656,3.7,3.7,0,0,1-3.446-1.654h0v6.34H84.902v-12.955c0-1.24,0-2.619-.138-4h2.343l.138,1.93h0a4.535,4.535,0,0,1,4.135-2.203,4.64,4.64,0,0,1,3.584,1.654,7.3101,7.3101,0,0,1,1.378,4.41Z" style="fill:#fff"/><path d="M107.506,37.34906a4.52205,4.52205,0,0,0-.827-2.894,2.708,2.708,0,0,0-2.343-1.24,2.9,2.9,0,0,0-1.792.689,2.7,2.7,0,0,0-1.1,1.792,1.74779,1.74779,0,0,0-.138.827v1.926a3.13,3.13,0,0,0,.827,2.205,2.87095,2.87095,0,0,0,4.41-.138,5.75585,5.75585,0,0,0,.965-3.17Zm2.619-.138a6.608,6.608,0,0,1-1.654,4.824,4.719,4.719,0,0,1-3.724,1.656,3.7,3.7,0,0,1-3.446-1.654h0v6.34H98.685v-12.955c0-1.24,0-2.619-.138-4h2.343l.138,1.93h0a4.535,4.535,0,0,1,4.135-2.203,4.64,4.64,0,0,1,3.584,1.654,6.508,6.508,0,0,1,1.378,4.41Z" style="fill:#fff"/><path d="M125.699,38.73006a4.48,4.48,0,0,1-1.516,3.446,6.7,6.7,0,0,1-4.548,1.516,7.51,7.51,0,0,1-4.273-1.1l.551-2.205a7.80009,7.80009,0,0,0,3.859,1.1,3.94205,3.94205,0,0,0,2.343-.689,2.222,2.222,0,0,0,.827-1.792,2.282,2.282,0,0,0-.689-1.654,7.115,7.115,0,0,0-2.343-1.24c-2.894-1.1-4.41-2.757-4.41-4.824a4.7,4.7,0,0,1,1.516-3.446,6.2,6.2,0,0,1,4.135-1.379,8.391,8.391,0,0,1,3.859.827l-.689,2.205a6.4,6.4,0,0,0-3.17-.827,3.507,3.507,0,0,0-2.205.689,2.213,2.213,0,0,0-.689,1.516,1.965,1.965,0,0,0,.827,1.654,6.732,6.732,0,0,0,2.478,1.236,7.92115,7.92115,0,0,1,3.17,2.067,5.2,5.2,0,0,1,.965,2.894Z" style="fill:#fff"/><path d="M134.52,33.35506h-2.894v5.927c0,1.516.551,2.205,1.516,2.205a3.81587,3.81587,0,0,0,1.24-.138l.138,2.067a8.34177,8.34177,0,0,1-2.067.276,2.949,2.949,0,0,1-2.481-.965,5.3,5.3,0,0,1-.827-3.308v-6.064h-1.792v-2.068h1.792v-2.205l2.618-.827v3.032h2.89v2.068Z" style="fill:#fff"/><path d="M145.136,37.34906a6.4071,6.4071,0,0,0-.689-2.894,2.558,2.558,0,0,0-2.343-1.378,2.625,2.625,0,0,0-2.481,1.378,6.423,6.423,0,0,0,0,5.789,2.625,2.625,0,0,0,2.481,1.378,2.7,2.7,0,0,0,2.343-1.516A5.428,5.428,0,0,0,145.136,37.34906Zm2.757,0a6.6,6.6,0,0,1-1.654,4.548,5.623,5.623,0,0,1-4.41,1.792,5.335,5.335,0,0,1-4.273-1.792,6.159,6.159,0,0,1-1.52-4.408,6.146,6.146,0,0,1,1.654-4.548,5.436,5.436,0,0,1,4.41-1.792,5.335,5.335,0,0,1,4.273,1.792,6.575,6.575,0,0,1,1.516,4.41Z" style="fill:#fff"/><path d="M156.572,33.76806c-.276,0-.551-.138-.827-.138a2.678,2.678,0,0,0-2.205,1.1,4.271,4.271,0,0,0-.689,2.343v6.338h-2.619v-8.27a34.85216,34.85216,0,0,0-.138-3.859h2.343l.138,2.343h.138a3.866,3.866,0,0,1,1.378-1.93,3.293,3.293,0,0,1,1.93-.689h.689v2.757Z" style="fill:#fff"/><path d="M166.083,36.11106a3.322,3.322,0,0,0-.551-2.067,2.5,2.5,0,0,0-2.205-1.1,2.43,2.43,0,0,0-2.067,1.1,4.668,4.668,0,0,0-.827,2.067Zm2.481.689a3.81617,3.81617,0,0,1-.138,1.24h-7.994a3.624,3.624,0,0,0,1.1,2.757,3.974,3.974,0,0,0,2.619.827,8.33991,8.33991,0,0,0,3.308-.551l.413,1.93a9.023,9.023,0,0,1-4,.689,5.82,5.82,0,0,1-4.41-1.654,6.033,6.033,0,0,1-1.654-4.41,7.228,7.228,0,0,1,1.516-4.548,5.444,5.444,0,0,1,4.273-1.93,4.719,4.719,0,0,1,4,1.93,6.23892,6.23892,0,0,1,.965,3.721Z" style="fill:#fff"/><path d="M66.02,10.75006H63.404v7.718H62.023v-7.718H59.404v-1.24H66.02Z" style="fill:#fff"/><path d="M72.221,9.23406l-1.654,1.93h-.965l1.1-1.93Zm-.551,5.375a2.60007,2.60007,0,0,0-.276-1.1,1.378,1.378,0,0,0-2.205,0,1.565,1.565,0,0,0-.413,1.1Zm1.378.276v.689H68.775a1.975,1.975,0,0,0,.689,1.516,2.328,2.328,0,0,0,1.378.413,6.98283,6.98283,0,0,0,1.792-.276l.276.965a5.248,5.248,0,0,1-2.205.413,3.242,3.242,0,0,1-2.343-.827,3.242,3.242,0,0,1-.827-2.344,3.848,3.848,0,0,1,.827-2.481,2.877,2.877,0,0,1,2.205-1.1,2.267,2.267,0,0,1,2.067,1.1,4.4,4.4,0,0,1,.413,1.93Z" style="fill:#fff"/><path d="M76.632,18.46906H75.116v-9.51h1.516Z" style="fill:#fff"/><path d="M83.799,9.23406l-1.654,1.93H81.18l1.1-1.93Zm-.689,5.375a2.60007,2.60007,0,0,0-.276-1.1,1.378,1.378,0,0,0-2.205,0,1.565,1.565,0,0,0-.413,1.1Zm1.378.276v.689H80.215a1.975,1.975,0,0,0,.689,1.516,2.328,2.328,0,0,0,1.378.413,6.98283,6.98283,0,0,0,1.792-.276l.276.965a5.248,5.248,0,0,1-2.205.413,3.242,3.242,0,0,1-2.343-.827,3.242,3.242,0,0,1-.827-2.344,3.848,3.848,0,0,1,.827-2.481,2.877,2.877,0,0,1,2.205-1.1,2.267,2.267,0,0,1,2.067,1.1,4.4,4.4,0,0,1,.413,1.93Z" style="fill:#fff"/><path d="M91.242,12.12806l-.276,1.1a4.02424,4.02424,0,0,0-1.24-.276,1.975,1.975,0,0,0-1.516.689,2.2,2.2,0,0,0-.551,1.654,2.2,2.2,0,0,0,.551,1.654,1.882,1.882,0,0,0,1.516.551,6.06594,6.06594,0,0,0,1.378-.276l.138,1.1a3.513,3.513,0,0,1-1.792.276,2.839,2.839,0,0,1-2.343-.965,3.369,3.369,0,0,1-.827-2.481,3.321,3.321,0,0,1,.965-2.481,3.431,3.431,0,0,1,2.619-.958C90.277,11.85306,90.829,11.99106,91.242,12.12806Z" style="fill:#fff"/><path d="M98.96,18.46906H97.582v-3.721c0-1.1-.413-1.792-1.378-1.792a1.327,1.327,0,0,0-1.378.965v4.41H93.447v-9.372h1.378v3.859h0a2.2,2.2,0,0,1,1.93-1.1,2.073,2.073,0,0,1,1.516.551,2.847,2.847,0,0,1,.689,2.205v3.995Z" style="fill:#fff"/><path d="M104.749,16.26406v-.965c-1.654,0-2.343.413-2.343,1.378a1.95889,1.95889,0,0,0,.276.827,1.053,1.053,0,0,0,.689.276,1.959,1.959,0,0,0,.827-.276,1.266,1.266,0,0,0,.551-.827Zm1.516,2.205h-1.24l-.138-.689h0a2.412,2.412,0,0,1-1.93.965,2.073,2.073,0,0,1-1.516-.554,2.449,2.449,0,0,1-.551-1.378,1.87,1.87,0,0,1,.965-1.792,4.328,4.328,0,0,1,2.757-.551v-.138c0-.827-.413-1.24-1.378-1.24a2.939,2.939,0,0,0-1.654.413l-.276-.965a3.757,3.757,0,0,1,2.205-.549,2.435,2.435,0,0,1,2.619,2.757v2.343a5.70891,5.70891,0,0,1,.138,1.378Z" style="fill:#fff"/><path d="M112.192,13.23106h-.413a1.344,1.344,0,0,0-1.24.551,2.267,2.267,0,0,0-.276,1.378v3.446h-1.379v-6.477h1.24v1.24h0a1.551,1.551,0,0,1,.689-1.1,1.565,1.565,0,0,1,1.1-.413h.413v1.378Z" style="fill:#fff"/><path d="M118.256,15.71306v-1.1a1.423,1.423,0,0,0-1.516-1.516,1.344,1.344,0,0,0-1.24.551,2.939,2.939,0,0,0-.413,1.654,2.476,2.476,0,0,0,.413,1.516,1.447,1.447,0,0,0,1.24.689,1.959,1.959,0,0,0,.827-.276,1.266,1.266,0,0,0,.551-.827,1.24206,1.24206,0,0,0,.138-.689Zm1.514-3.722v5.513a3.5,3.5,0,0,1-.965,2.894,3.242,3.242,0,0,1-2.343.827,3.5,3.5,0,0,1-2.205-.551l.276-1.1a3.909,3.909,0,0,0,1.792.551c1.24,0,1.93-.689,1.93-2.067v-.689h0a2.086,2.086,0,0,1-1.93.965,2.235,2.235,0,0,1-1.93-.965,3.242,3.242,0,0,1-.827-2.343,3.369,3.369,0,0,1,.827-2.481,2.9,2.9,0,0,1,1.93-.965,2.086,2.086,0,0,1,1.93.965h0v-.967h1.515Z" style="fill:#fff"/><path d="M126.25,14.61006a2.59992,2.59992,0,0,0-.276-1.1,1.378,1.378,0,0,0-2.205,0,1.565,1.565,0,0,0-.413,1.1Zm1.378.276v.689h-4.273a1.97493,1.97493,0,0,0,.689,1.516,2.328,2.328,0,0,0,1.378.413,6.98283,6.98283,0,0,0,1.792-.276l.276.965a5.248,5.248,0,0,1-2.205.413,3.242,3.242,0,0,1-2.343-.827,3.242,3.242,0,0,1-.827-2.343,3.848,3.848,0,0,1,.827-2.483,2.877,2.877,0,0,1,2.205-1.1,2.267,2.267,0,0,1,2.068,1.1,7.94982,7.94982,0,0,1,.413,1.93Z" style="fill:#fff"/><path d="M133.142,13.23106h-.413a1.344,1.344,0,0,0-1.24.551,1.924,1.924,0,0,0-.413,1.24v3.446h-1.38v-6.477h1.24v1.24h0a1.758,1.758,0,0,1,.689-.965,1.565,1.565,0,0,1,1.1-.413h.413v1.378Z" style="fill:#fff"/><path d="M143.203,15.71306v-1.517a1.266,1.266,0,0,0-.551-.827,1.251,1.251,0,0,0-.965-.413,1.447,1.447,0,0,0-1.24.689,2.939,2.939,0,0,0-.413,1.654,2.476,2.476,0,0,0,.413,1.516,1.447,1.447,0,0,0,1.24.689,1.254,1.254,0,0,0,1.1-.551,1.685,1.685,0,0,0,.413-1.24Zm1.514,2.756h-1.378v-1.1h0a2.138,2.138,0,0,1-2.067,1.24,2.235,2.235,0,0,1-1.93-.965,3.242,3.242,0,0,1-.827-2.343,3.974,3.974,0,0,1,.827-2.619,2.931,2.931,0,0,1,2.067-.965,1.9,1.9,0,0,1,1.792.827h0v-3.585h1.378v7.718A7.28085,7.28085,0,0,0,144.717,18.46906Z" style="fill:#fff"/><path d="M150.507,16.26406v-.965c-1.654,0-2.343.413-2.343,1.378a1.959,1.959,0,0,0,.276.827,1.053,1.053,0,0,0,.689.276,1.959,1.959,0,0,0,.827-.276,1.266,1.266,0,0,0,.551-.827Zm1.516,2.205h-1.24l-.138-.689h0a2.412,2.412,0,0,1-1.93.965,2.073,2.073,0,0,1-1.516-.554,2.4491,2.4491,0,0,1-.551-1.378,1.87,1.87,0,0,1,.965-1.792,4.328,4.328,0,0,1,2.757-.551v-.138c0-.827-.414-1.24-1.378-1.24a2.939,2.939,0,0,0-1.654.413l-.276-.965a3.757,3.757,0,0,1,2.205-.551,2.435,2.435,0,0,1,2.619,2.757v2.345a5.70891,5.70891,0,0,1,.138,1.378Z" style="fill:#fff"/><path d="M160.156,18.46906h-1.378v-3.722c0-1.1-.413-1.654-1.378-1.654a1.423,1.423,0,0,0-1.516,1.516v3.859h-1.379v-6.477h1.24v.964h0a3.65276,3.65276,0,0,1,.689-.827,2.223,2.223,0,0,1,1.24-.413,2.073,2.073,0,0,1,1.516.551,2.674,2.674,0,0,1,.689,2.205v4Z" style="fill:#fff"/><path d="M166.633,16.67706a2.213,2.213,0,0,1-.689,1.514,2.542,2.542,0,0,1-1.792.551,4.4,4.4,0,0,1-1.93-.413l.276-1.1a3.274,3.274,0,0,0,1.654.413c.689,0,1.1-.276,1.1-.827a.716.716,0,0,0-.276-.551,2.24386,2.24386,0,0,0-.827-.413c-1.1-.413-1.792-1.1-1.792-1.93a1.914,1.914,0,0,1,.689-1.378,2.2,2.2,0,0,1,1.654-.551,2.939,2.939,0,0,1,1.654.413l-.276,1.1a2.328,2.328,0,0,0-1.378-.413,1.053,1.053,0,0,0-.689.276.689.689,0,0,0,0,1.1,2.244,2.244,0,0,0,.827.413c1.24.276,1.792.827,1.792,1.792Z" style="fill:#fff"/></svg>