<?xml version="1.0" encoding="utf-8"?>
<!-- Generator: Adobe Illustrator 23.0.2, SVG Export Plug-In . SVG Version: 6.00 Build 0)  -->
<svg version="1.1" id="Calque_1" xmlns="http://www.w3.org/2000/svg" xmlns:xlink="http://www.w3.org/1999/xlink" x="0px" y="0px"
	 viewBox="0 0 18 18" style="enable-background:new 0 0 18 18;" xml:space="preserve">
<style type="text/css">
	.st0{fill:#FFFFFF;}
</style>
<path class="st0" d="M16.6,0h-15C0.7,0,0,0.6,0,1.4v15.1C0,17.3,0.7,18,1.5,18h15c0.8,0,1.4-0.7,1.4-1.5V1.4C18,0.6,17.4,0,16.6,0z
	 M5.6,15H3V7h2.6V15z M4.4,5.8L4.4,5.8C3.5,5.8,3,5.2,3,4.4S3.5,3,4.4,3s1.4,0.6,1.4,1.4S5.2,5.8,4.4,5.8z M15,15h-2.6v-4.4
	c0-1.1-0.4-1.8-1.3-1.8c-0.7,0-1.1,0.5-1.3,1c-0.1,0.2-0.1,0.4-0.1,0.6V15H7.1V7h2.6v1.1c0.4-0.5,1-1.3,2.3-1.3c1.7,0,3,1.1,3,3.5
	V15z"/>
</svg>
