<svg xmlns="http://www.w3.org/2000/svg" xmlns:xlink="http://www.w3.org/1999/xlink" width="121.022" height="62" viewBox="0 0 121.022 62"><defs><clipPath id="a"><rect width="39.301" height="44.915" transform="translate(44.915 0) rotate(90)" fill="none"/></clipPath><clipPath id="b"><path d="M463.163,3663.751a22.458,22.458,0,1,0-22.458,22.457A22.458,22.458,0,0,0,463.163,3663.751Zm-39.3,0a16.843,16.843,0,1,1,16.843,16.843A16.844,16.844,0,0,1,423.862,3663.751Z" transform="translate(-418.248 -3641.293)" fill="none"/></clipPath></defs><g transform="translate(-378.222 -3623.293)"><g transform="translate(415.676 3623.293)"><g transform="translate(0 0)" clip-path="url(#a)"><g transform="translate(0 -22.458)"><path d="M452.706,3664.522a11.229,11.229,0,1,0-11.229,11.229A11.229,11.229,0,0,0,452.706,3664.522Zm-16.843,0a5.614,5.614,0,1,1,5.614,5.615A5.614,5.614,0,0,1,435.862,3664.522Z" transform="translate(-419.019 -3602.763)" fill="#05897b"/><path d="M463.163,3663.751a22.458,22.458,0,1,0-22.458,22.457A22.458,22.458,0,0,0,463.163,3663.751Zm-39.3,0a16.843,16.843,0,1,1,16.843,16.843A16.844,16.844,0,0,1,423.862,3663.751Z" transform="translate(-418.248 -3601.992)" fill="#05897b"/><g transform="translate(0 39.301)"><g clip-path="url(#b)"><circle cx="28.072" cy="28.072" r="28.072" transform="translate(-5.614 -44.894)" fill="#181818" opacity="0.26"/></g></g><path d="M458.451,3640.248a27.972,27.972,0,0,0-5.322-2.795,17.028,17.028,0,0,1-3.022,1.881,25.089,25.089,0,0,1,6.1,2.812A22.618,22.618,0,0,0,458.451,3640.248Z" transform="translate(-420.295 -3601.745)" fill="#181818" opacity="0.26"/><path d="M452.706,3622.522a11.229,11.229,0,1,0-11.229,11.229A11.228,11.228,0,0,0,452.706,3622.522Zm-16.843,0a5.614,5.614,0,1,1,5.614,5.615A5.614,5.614,0,0,1,435.862,3622.522Z" transform="translate(-419.019 -3600.064)" fill="#f47820"/><path d="M463.163,3621.751a22.458,22.458,0,1,0-22.458,22.458A22.458,22.458,0,0,0,463.163,3621.751Zm-39.3,0a16.843,16.843,0,1,1,16.843,16.843A16.844,16.844,0,0,1,423.862,3621.751Z" transform="translate(-418.248 -3599.293)" fill="#f47820"/></g></g></g><g transform="translate(378.222 3673.589)"><path d="M378.222,3677.319h2.526v11.219h-2.526Z" transform="translate(-378.222 -3677.061)" fill="#181818"/><path d="M390.857,3688.538q-.671-1.413-1.321-2.933T388.3,3682.6q-.587-1.488-1.079-2.849t-.849-2.429h2.785q.314.975.7,2.1t.786,2.238q.4,1.116.766,2.138t.7,1.765q.317-.736.691-1.76t.775-2.137q.4-1.116.785-2.24t.7-2.1h2.688q-.376,1.073-.868,2.432t-1.072,2.846q-.583,1.489-1.23,3.012t-1.316,2.929Z" transform="translate(-378.746 -3677.061)" fill="#181818"/><path d="M414.182,3682.9a6.918,6.918,0,0,1-.429,2.533,5.208,5.208,0,0,1-1.174,1.829,4.81,4.81,0,0,1-1.772,1.109,6.455,6.455,0,0,1-2.21.372,6.29,6.29,0,0,1-2.169-.372,4.981,4.981,0,0,1-1.78-1.109,5.18,5.18,0,0,1-1.2-1.829,6.8,6.8,0,0,1-.436-2.533,6.577,6.577,0,0,1,.453-2.534,5.378,5.378,0,0,1,1.222-1.837,5.03,5.03,0,0,1,1.781-1.118,6.145,6.145,0,0,1,2.128-.372,6.31,6.31,0,0,1,2.17.372,4.948,4.948,0,0,1,1.781,1.118,5.261,5.261,0,0,1,1.2,1.837A6.784,6.784,0,0,1,414.182,3682.9Zm-8.563,0a5.067,5.067,0,0,0,.2,1.489,3.392,3.392,0,0,0,.583,1.142,2.567,2.567,0,0,0,.93.737,3.187,3.187,0,0,0,2.517,0,2.551,2.551,0,0,0,.939-.737,3.392,3.392,0,0,0,.582-1.142,5.066,5.066,0,0,0,.2-1.489,5.158,5.158,0,0,0-.2-1.5,3.374,3.374,0,0,0-.582-1.149,2.564,2.564,0,0,0-.939-.738,2.969,2.969,0,0,0-1.255-.258,2.854,2.854,0,0,0-1.262.267,2.66,2.66,0,0,0-.93.745,3.381,3.381,0,0,0-.583,1.15A5.089,5.089,0,0,0,405.619,3682.9Z" transform="translate(-379.815 -3677.043)" fill="#181818"/><path d="M421.091,3677.319h2.526v11.219h-2.526Z" transform="translate(-380.977 -3677.061)" fill="#181818"/><path d="M433.736,3677.182a6.955,6.955,0,0,1,3.869.9,3.121,3.121,0,0,1,1.343,2.793,3.153,3.153,0,0,1-.543,1.918,3.568,3.568,0,0,1-1.562,1.157q.34.421.712.963t.736,1.133q.365.591.7,1.23t.632,1.255h-2.823q-.31-.551-.626-1.118t-.649-1.1c-.222-.355-.443-.693-.659-1.011s-.433-.607-.65-.866h-1.246v4.1h-2.526v-11.057a14.411,14.411,0,0,1,1.708-.227C432.745,3677.2,433.272,3677.182,433.736,3677.182Zm.145,2.152c-.183,0-.348.006-.493.016l-.414.032v3.043h.713a4.3,4.3,0,0,0,2.04-.355,1.289,1.289,0,0,0,.615-1.214,1.238,1.238,0,0,0-.623-1.174A3.854,3.854,0,0,0,433.881,3679.334Z" transform="translate(-381.578 -3677.052)" fill="#181818"/><path d="M445.881,3688.538v-11.219h7.577v2.121h-5.051v2.2h4.484v2.073h-4.484v2.7h5.424v2.121Z" transform="translate(-382.57 -3677.061)" fill="#181818"/><path d="M467.111,3687.178v1.361h-6.75v-11.219h1.57v9.858Z" transform="translate(-383.501 -3677.061)" fill="#181818"/><path d="M473.232,3677.319h1.57v11.219h-1.57Z" transform="translate(-384.328 -3677.061)" fill="#181818"/><path d="M489.467,3688.538q-.357-.6-.817-1.344t-1-1.546q-.535-.8-1.109-1.628t-1.142-1.594q-.567-.769-1.1-1.449t-.988-1.2v8.758h-1.537v-11.219h1.246q.761.809,1.627,1.886t1.716,2.218q.849,1.142,1.6,2.243t1.27,1.958v-8.3h1.537v11.219Z" transform="translate(-384.877 -3677.061)" fill="#181818"/><path d="M506.57,3677.319q-.5.551-1.133,1.223t-1.318,1.376q-.691.7-1.368,1.383t-1.28,1.263a14.286,14.286,0,0,1,1.474,1.2q.776.712,1.521,1.521t1.4,1.651a14.14,14.14,0,0,1,1.093,1.6h-1.846a16.149,16.149,0,0,0-1.116-1.53q-.633-.769-1.336-1.472t-1.425-1.3a12.311,12.311,0,0,0-1.4-1.02v5.326h-1.569v-11.219h1.569v4.953c.378-.356.794-.757,1.246-1.206s.9-.9,1.344-1.352.861-.887,1.255-1.3.725-.779,1-1.093Z" transform="translate(-385.937 -3677.061)" fill="#181818"/></g></g></svg>