<svg xmlns="http://www.w3.org/2000/svg" xmlns:xlink="http://www.w3.org/1999/xlink" width="44.915" height="39.301" viewBox="0 0 44.915 39.301"><defs><clipPath id="a"><rect width="39.301" height="44.915" transform="translate(44.915 0) rotate(90)" fill="none"/></clipPath><clipPath id="b"><path d="M463.163,3663.751a22.458,22.458,0,1,0-22.458,22.457A22.458,22.458,0,0,0,463.163,3663.751Zm-39.3,0a16.843,16.843,0,1,1,16.843,16.843A16.844,16.844,0,0,1,423.862,3663.751Z" transform="translate(-418.248 -3641.293)" fill="none"/></clipPath></defs><g transform="translate(0 0)" clip-path="url(#a)"><g transform="translate(0 -22.458)"><path d="M452.706,3664.522a11.229,11.229,0,1,0-11.229,11.229A11.229,11.229,0,0,0,452.706,3664.522Zm-16.843,0a5.614,5.614,0,1,1,5.614,5.615A5.614,5.614,0,0,1,435.862,3664.522Z" transform="translate(-419.019 -3602.763)" fill="#05897b"/><path d="M463.163,3663.751a22.458,22.458,0,1,0-22.458,22.457A22.458,22.458,0,0,0,463.163,3663.751Zm-39.3,0a16.843,16.843,0,1,1,16.843,16.843A16.844,16.844,0,0,1,423.862,3663.751Z" transform="translate(-418.248 -3601.992)" fill="#05897b"/><g transform="translate(0 39.301)"><g clip-path="url(#b)"><circle cx="28.072" cy="28.072" r="28.072" transform="translate(-5.614 -44.894)" fill="#181818" opacity="0.26"/></g></g><path d="M458.451,3640.248a27.972,27.972,0,0,0-5.322-2.795,17.028,17.028,0,0,1-3.022,1.881,25.089,25.089,0,0,1,6.1,2.812A22.618,22.618,0,0,0,458.451,3640.248Z" transform="translate(-420.295 -3601.745)" fill="#181818" opacity="0.26"/><path d="M452.706,3622.522a11.229,11.229,0,1,0-11.229,11.229A11.228,11.228,0,0,0,452.706,3622.522Zm-16.843,0a5.614,5.614,0,1,1,5.614,5.615A5.614,5.614,0,0,1,435.862,3622.522Z" transform="translate(-419.019 -3600.064)" fill="#f47820"/><path d="M463.163,3621.751a22.458,22.458,0,1,0-22.458,22.458A22.458,22.458,0,0,0,463.163,3621.751Zm-39.3,0a16.843,16.843,0,1,1,16.843,16.843A16.844,16.844,0,0,1,423.862,3621.751Z" transform="translate(-418.248 -3599.293)" fill="#f47820"/></g></g></svg>