<svg xmlns="http://www.w3.org/2000/svg" width="22.5" height="18.283" viewBox="0 0 22.5 18.283"><path d="M82.076,116.733A13.045,13.045,0,0,0,95.21,103.6c0-.2,0-.4-.014-.6a9.393,9.393,0,0,0,2.3-2.389,9.214,9.214,0,0,1-2.651.726,4.632,4.632,0,0,0,2.03-2.553,9.251,9.251,0,0,1-2.931,1.12,4.621,4.621,0,0,0-7.867,4.21,13.106,13.106,0,0,1-9.514-4.823A4.62,4.62,0,0,0,78,105.455a4.581,4.581,0,0,1-2.1-.578v.059a4.618,4.618,0,0,0,3.7,4.525,4.609,4.609,0,0,1-2.084.079,4.622,4.622,0,0,0,4.313,3.206,9.263,9.263,0,0,1-5.733,1.98,9.39,9.39,0,0,1-1.1-.067,13.069,13.069,0,0,0,7.076,2.07" transform="translate(-75 -98.45)" fill="#fff"/></svg>